<svg width="63" height="62" viewBox="0 0 63 62" fill="none" xmlns="http://www.w3.org/2000/svg">
<path d="M30.993 61.928H4.03C1.348 61.928 0 60.608 0 57.941V10.841C0 8.21701 1.348 6.88501 3.973 6.88501C5.479 6.88501 6.985 6.85601 8.491 6.89901C9.079 6.91301 9.208 6.71301 9.191 6.16801C9.148 5.26801 9.162 4.34701 9.177 3.44301C9.17792 2.98995 9.26807 2.5415 9.44229 2.12328C9.61652 1.70506 9.87142 1.32525 10.1924 1.00554C10.5134 0.685827 10.8943 0.432473 11.3132 0.259944C11.7321 0.0874145 12.1809 -0.000912151 12.634 7.10208e-06C13.0871 0.000926355 13.5355 0.0910735 13.9537 0.265301C14.3719 0.43953 14.7518 0.694426 15.0715 1.01544C15.3912 1.33645 15.6445 1.71729 15.8171 2.13622C15.9896 2.55514 16.0779 3.00395 16.077 3.45701C16.091 4.41801 16.106 5.36401 16.077 6.32501C16.063 6.77001 16.22 6.88401 16.651 6.88401C20.122 6.87001 23.578 6.87001 27.051 6.88401C27.451 6.88401 27.582 6.76901 27.582 6.35301C27.553 5.39201 27.568 4.44601 27.582 3.48501C27.5801 2.57213 27.941 1.69591 28.5852 1.0491C29.2294 0.402282 30.1041 0.0378637 31.017 0.0360072C31.9299 0.0341507 32.8061 0.395008 33.4529 1.0392C34.0997 1.68338 34.4641 2.55813 34.466 3.47101C34.48 4.43201 34.48 5.37801 34.466 6.33901C34.452 6.73901 34.566 6.87001 34.982 6.87001C38.467 6.85601 41.967 6.85601 45.452 6.87001C45.882 6.87001 45.968 6.69801 45.952 6.32501C45.938 5.36401 45.938 4.41801 45.952 3.45701C45.9501 3.00592 46.0371 2.55887 46.2079 2.14139C46.3788 1.7239 46.6302 1.34416 46.9478 1.02385C47.5893 0.376942 48.4615 0.0113528 49.3725 0.00750718C50.2835 0.00366154 51.1588 0.361874 51.8057 1.00334C52.4526 1.64481 52.8182 2.51699 52.822 3.42801C52.836 4.36001 52.865 5.29201 52.808 6.22801C52.779 6.78701 52.98 6.90201 53.496 6.88801C55.074 6.85901 56.651 6.87401 58.229 6.87401C58.7326 6.82916 59.24 6.89479 59.7156 7.06631C60.1912 7.23783 60.6237 7.51111 60.9828 7.86706C61.3419 8.22301 61.6189 8.65305 61.7946 9.12716C61.9703 9.60126 62.0404 10.108 62 10.612V58.212C62.0355 58.7095 61.9632 59.2089 61.788 59.6759C61.6127 60.1428 61.3387 60.5665 60.9846 60.9178C60.6306 61.2691 60.2048 61.5398 59.7365 61.7114C59.2681 61.883 58.7682 61.9514 58.271 61.912C49.1637 61.9273 40.071 61.9327 30.993 61.928ZM58.5 20.494C58.519 20.3515 58.5237 20.2074 58.514 20.064C58.471 19.29 58.571 18.615 59.461 18.357C59.719 18.285 59.661 18.057 59.661 17.884C59.661 15.374 59.675 12.864 59.661 10.355C59.6775 10.1921 59.657 10.0277 59.6011 9.87379C59.5452 9.71993 59.4554 9.58064 59.3382 9.46629C59.2211 9.35194 59.0797 9.26547 58.9245 9.21331C58.7694 9.16115 58.6044 9.14464 58.442 9.16501C56.75 9.15101 55.042 9.16501 53.351 9.15101C52.906 9.15101 52.777 9.32301 52.792 9.73901C52.806 10.7 52.806 11.646 52.792 12.607C52.792 13.518 52.4301 14.3917 51.7859 15.0359C51.1417 15.6801 50.268 16.042 49.357 16.042C48.446 16.042 47.5723 15.6801 46.9281 15.0359C46.2839 14.3917 45.922 13.518 45.922 12.607C45.908 11.675 45.893 10.743 45.922 9.80701C45.936 9.31901 45.807 9.13301 45.291 9.13301C41.891 9.14701 38.507 9.14701 35.108 9.13301C34.549 9.13301 34.42 9.31901 34.434 9.83301C34.463 10.733 34.448 11.654 34.434 12.558C34.434 13.4709 34.0714 14.3464 33.4259 14.9919C32.7804 15.6374 31.9049 16 30.992 16C30.0791 16 29.2036 15.6374 28.5581 14.9919C27.9126 14.3464 27.55 13.4709 27.55 12.558C27.5353 11.6247 27.5353 10.6913 27.55 9.75801C27.564 9.29901 27.435 9.12701 26.95 9.12701C23.537 9.14101 20.109 9.14101 16.696 9.12701C16.18 9.12701 16.051 9.31301 16.065 9.80101C16.094 10.733 16.079 11.665 16.065 12.601C16.065 13.0521 15.9762 13.4988 15.8035 13.9155C15.6309 14.3323 15.3779 14.7109 15.0589 15.0299C14.7399 15.3489 14.3613 15.6019 13.9445 15.7745C13.5278 15.9472 13.0811 16.036 12.63 16.036C12.1789 16.036 11.7322 15.9472 11.3155 15.7745C10.8987 15.6019 10.5201 15.3489 10.2011 15.0299C9.88212 14.7109 9.6291 14.3323 9.45647 13.9155C9.28385 13.4988 9.195 13.0521 9.195 12.601C9.181 11.712 9.152 10.837 9.209 9.94801C9.238 9.33101 9.08 9.11601 8.42 9.13101C6.885 9.17401 5.365 9.14501 3.831 9.14501C2.669 9.14501 2.311 9.51801 2.311 10.708C2.311 12.96 2.325 15.197 2.297 17.449C2.297 17.949 2.283 18.367 2.897 18.549C3.06481 18.6198 3.20695 18.7402 3.30436 18.8941C3.40178 19.048 3.4498 19.228 3.442 19.41C3.471 19.769 3.471 20.127 3.485 20.486C3.471 20.916 3.471 21.347 3.456 21.777C3.441 22.207 3.298 22.652 2.882 22.767C2.265 22.939 2.323 23.367 2.323 23.814V49.163C2.323 51.243 2.337 53.322 2.337 55.387C2.337 56.362 2.308 57.352 2.323 58.327C2.337 59.227 2.753 59.618 3.657 59.646C3.901 59.66 4.13 59.646 4.374 59.646H58.343C59.261 59.617 59.662 59.23 59.677 58.327C59.691 57.352 59.677 56.362 59.663 55.387C59.663 50.855 59.677 46.323 59.677 41.777V23.807C59.677 23.348 59.72 22.932 59.118 22.76C58.702 22.645 58.559 22.201 58.544 21.77C58.529 21.339 58.515 20.924 58.5 20.494ZM13.768 8.08501V3.71401C13.768 2.85301 13.338 2.33701 12.668 2.32301C11.998 2.30901 11.521 2.85401 11.521 3.75701V12.348C11.521 13.209 11.937 13.725 12.621 13.739C13.338 13.753 13.768 13.223 13.768 12.319V8.08501ZM32.126 8.07101V3.70001C32.126 2.85401 31.681 2.32301 31.007 2.32301C30.333 2.32301 29.888 2.85401 29.874 3.70001V12.363C29.874 13.224 30.304 13.74 30.993 13.74C31.682 13.74 32.112 13.224 32.126 12.378V8.07101ZM50.484 8.07101V3.70001C50.484 2.85401 50.025 2.32301 49.351 2.32301C48.677 2.32301 48.232 2.85401 48.232 3.70001V12.363C48.232 13.224 48.662 13.725 49.365 13.725C50.068 13.725 50.484 13.209 50.484 12.348V8.07101Z" fill="#8C6C9E"/>
<path d="M2.32008 55.4028C2.32008 53.3228 2.30608 51.2438 2.30608 49.1788V23.8358C2.30608 23.3768 2.24908 22.9608 2.86508 22.7888C3.28108 22.6738 3.42408 22.2298 3.43908 21.7988C3.45408 21.3678 3.45308 20.9388 3.46708 20.5088C4.59267 20.6712 5.73182 20.7191 6.86708 20.6518C6.88108 21.0518 6.86708 21.4518 6.89608 21.8518C6.9084 22.1459 7.03389 22.4238 7.24634 22.6276C7.45878 22.8313 7.74173 22.945 8.03608 22.945C8.33042 22.945 8.61338 22.8313 8.82582 22.6276C9.03826 22.4238 9.16376 22.1459 9.17608 21.8518C9.20508 21.4518 9.20508 21.0518 9.21908 20.6518H12.6191C12.6331 21.0518 12.6191 21.4518 12.6481 21.8518C12.6604 22.1459 12.7859 22.4238 12.9983 22.6276C13.2108 22.8313 13.4937 22.945 13.7881 22.945C14.0824 22.945 14.3654 22.8313 14.5778 22.6276C14.7903 22.4238 14.9158 22.1459 14.9281 21.8518C14.9571 21.4518 14.9571 21.0518 14.9711 20.6518H18.3711C18.3851 21.0518 18.3711 21.4518 18.4001 21.8518C18.4124 22.1459 18.5379 22.4238 18.7503 22.6276C18.9628 22.8313 19.2457 22.945 19.5401 22.945C19.8344 22.945 20.1174 22.8313 20.3298 22.6276C20.5423 22.4238 20.6678 22.1459 20.6801 21.8518C20.7091 21.4518 20.7091 21.0518 20.7231 20.6518H24.1231C24.1371 21.0518 24.1231 21.4518 24.1521 21.8518C24.1644 22.1459 24.2899 22.4238 24.5023 22.6276C24.7148 22.8313 24.9977 22.945 25.2921 22.945C25.5864 22.945 25.8694 22.8313 26.0818 22.6276C26.2943 22.4238 26.4198 22.1459 26.4321 21.8518C26.4611 21.4518 26.4611 21.0518 26.4751 20.6518H29.8751C29.8891 21.0518 29.8751 21.4518 29.9041 21.8518C29.9164 22.1459 30.0419 22.4238 30.2543 22.6276C30.4668 22.8313 30.7497 22.945 31.0441 22.945C31.3384 22.945 31.6214 22.8313 31.8338 22.6276C32.0463 22.4238 32.1718 22.1459 32.1841 21.8518C32.2131 21.4518 32.2131 21.0518 32.2271 20.6518H35.6271C35.6411 21.0518 35.6271 21.4518 35.6561 21.8518C35.6684 22.1459 35.7939 22.4238 36.0063 22.6276C36.2188 22.8313 36.5017 22.945 36.7961 22.945C37.0904 22.945 37.3734 22.8313 37.5858 22.6276C37.7983 22.4238 37.9238 22.1459 37.9361 21.8518C37.9651 21.4518 37.9651 21.0518 37.9791 20.6518H41.3791C41.3931 21.0518 41.3791 21.4518 41.4081 21.8518C41.4204 22.1459 41.5459 22.4238 41.7583 22.6276C41.9708 22.8313 42.2537 22.945 42.5481 22.945C42.8424 22.945 43.1254 22.8313 43.3378 22.6276C43.5503 22.4238 43.6758 22.1459 43.6881 21.8518C43.7171 21.4518 43.7171 21.0518 43.7311 20.6518H47.1311C47.1451 21.0518 47.1311 21.4518 47.1601 21.8518C47.1724 22.1459 47.2979 22.4238 47.5103 22.6276C47.7228 22.8313 48.0057 22.945 48.3001 22.945C48.5944 22.945 48.8774 22.8313 49.0898 22.6276C49.3023 22.4238 49.4278 22.1459 49.4401 21.8518C49.4691 21.4518 49.4691 21.0518 49.4831 20.6518H52.8831C52.8971 21.0518 52.8831 21.4518 52.9121 21.8518C52.9244 22.1459 53.0499 22.4238 53.2623 22.6276C53.4748 22.8313 53.7577 22.945 54.0521 22.945C54.3464 22.945 54.6294 22.8313 54.8418 22.6276C55.0543 22.4238 55.1798 22.1459 55.1921 21.8518C55.2211 21.4518 55.2211 21.0518 55.2351 20.6518C56.3673 20.7182 57.5034 20.6703 58.6261 20.5088C58.6401 20.9388 58.6401 21.3698 58.6551 21.7998C58.6701 22.2298 58.8131 22.6748 59.2291 22.7898C59.8461 22.9618 59.8031 23.3778 59.7881 23.8368V41.8088C59.7881 46.3408 59.7741 50.8728 59.7741 55.4188C59.1437 54.8001 58.37 54.347 57.5221 54.0998C57.3501 53.0528 57.0221 52.7948 55.8441 52.7948H6.29208C5.19208 52.7948 4.85808 53.0818 4.68608 54.0998C3.7936 54.3109 2.97559 54.7614 2.32008 55.4028ZM22.9581 36.0838C22.9721 34.1908 22.9721 32.3118 22.9581 30.4188C22.9581 29.9458 23.1301 29.8018 23.5891 29.8018C25.1381 29.8158 26.7011 29.8018 28.2501 29.8018L22.9581 36.0838ZM22.9291 47.1558C22.9603 46.9416 22.97 46.7249 22.9581 46.5088C22.9581 44.2568 22.9871 42.0198 22.9441 39.7678C22.9301 39.1228 23.1441 38.9508 23.7611 38.9678C25.2961 39.0108 26.8161 38.9818 28.3501 38.9818L22.9291 47.1558ZM30.9891 27.5338C30.8461 27.5198 30.7021 27.5198 30.5591 27.5198H22.2411L30.9891 27.5338ZM12.6601 33.5598C12.3731 33.6168 12.2871 33.8758 12.2011 34.0758C11.9612 34.7137 11.5895 35.2938 11.1101 35.7782C10.6307 36.2626 10.0545 36.6404 9.41908 36.8868C9.21908 36.9728 8.88808 37.0298 8.93108 37.3318C8.96008 37.5758 9.24708 37.6758 9.46208 37.7618C10.0727 37.9759 10.6284 38.3222 11.0896 38.7759C11.5508 39.2297 11.9061 39.7798 12.1301 40.3868C12.2301 40.6308 12.3301 41.0038 12.6611 40.9748C12.9331 40.9608 13.0481 40.6308 13.1341 40.3868C13.3573 39.7818 13.7106 39.2331 14.169 38.7796C14.6274 38.326 15.1797 37.9786 15.7871 37.7618C15.8758 37.7246 15.962 37.6815 16.0451 37.6328C16.4321 37.4328 16.5041 37.1878 16.0591 37.0018C15.3563 36.7431 14.7172 36.3364 14.1851 35.8094C13.6531 35.2823 13.2404 34.6471 12.9751 33.9468C12.9362 33.8573 12.8828 33.7749 12.8171 33.7028C12.7753 33.6447 12.7218 33.5959 12.6601 33.5598ZM48.6041 28.4398C48.5611 28.4968 48.4751 28.5548 48.4461 28.6398C48.0736 29.5518 47.3652 30.286 46.4671 30.6908C46.0081 30.8908 46.2091 31.1358 46.5241 31.2788C46.9528 31.4589 47.3412 31.7229 47.6663 32.0554C47.9914 32.3879 48.2467 32.7821 48.4171 33.2148C48.6031 33.7028 48.8471 33.4728 48.9761 33.1578C49.1551 32.729 49.4171 32.3399 49.7469 32.0126C50.0767 31.6854 50.4679 31.4265 50.8981 31.2508C51.2851 31.0788 51.2981 30.8508 50.8981 30.6768C50.4663 30.5035 50.0736 30.2455 49.7431 29.9179C49.4127 29.5904 49.1512 29.2 48.9741 28.7698C48.9171 28.6268 48.8591 28.4398 48.6041 28.4398ZM51.3581 47.7298C51.3291 47.6008 51.2001 47.5298 51.0711 47.4718C50.635 47.2722 50.2816 46.9277 50.0711 46.4968C49.8561 46.0378 49.6261 46.1238 49.4401 46.4968C49.2306 46.955 48.857 47.3182 48.3931 47.5148C48.0341 47.6728 48.0201 47.8588 48.3931 48.0308C48.877 48.2493 49.2645 48.6369 49.4831 49.1208C49.6981 49.5658 49.8991 49.4078 50.0571 49.0918C50.2657 48.6294 50.6389 48.2612 51.1041 48.0588C51.1783 48.0429 51.2444 48.001 51.2904 47.9407C51.3364 47.8804 51.3594 47.8056 51.3551 47.7298H51.3581Z" fill="#85CAF7"/>
<path d="M35.556 20.6349H32.156C32.142 20.2349 32.156 19.8349 32.113 19.4349C32.0958 19.1461 31.969 18.8747 31.7584 18.6762C31.5478 18.4778 31.2693 18.3673 30.98 18.3673C30.6906 18.3673 30.4122 18.4778 30.2016 18.6762C29.991 18.8747 29.8642 19.1461 29.847 19.4349C29.804 19.8349 29.818 20.2349 29.804 20.6349H26.404C26.39 20.2349 26.404 19.8349 26.361 19.4349C26.3438 19.1461 26.217 18.8747 26.0064 18.6762C25.7958 18.4778 25.5173 18.3673 25.228 18.3673C24.9386 18.3673 24.6602 18.4778 24.4496 18.6762C24.239 18.8747 24.1122 19.1461 24.095 19.4349C24.052 19.8349 24.066 20.2349 24.052 20.6349H20.652C20.638 20.2349 20.652 19.8349 20.609 19.4349C20.5918 19.1461 20.465 18.8747 20.2544 18.6762C20.0438 18.4778 19.7653 18.3673 19.476 18.3673C19.1866 18.3673 18.9082 18.4778 18.6976 18.6762C18.487 18.8747 18.3602 19.1461 18.343 19.4349C18.3 19.8349 18.314 20.2349 18.3 20.6349H14.9C14.886 20.2349 14.9 19.8349 14.857 19.4349C14.8398 19.1461 14.713 18.8747 14.5024 18.6762C14.2918 18.4778 14.0133 18.3673 13.724 18.3673C13.4346 18.3673 13.1562 18.4778 12.9456 18.6762C12.735 18.8747 12.6082 19.1461 12.591 19.4349C12.548 19.8349 12.562 20.2349 12.548 20.6349H9.14798C9.13398 20.2349 9.14798 19.8349 9.10498 19.4349C9.08781 19.1461 8.96097 18.8747 8.75037 18.6762C8.53978 18.4778 8.26135 18.3673 7.97198 18.3673C7.68262 18.3673 7.40419 18.4778 7.19359 18.6762C6.983 18.8747 6.85615 19.1461 6.83898 19.4349C6.79598 19.8349 6.80998 20.2349 6.79598 20.6349C5.66073 20.702 4.5216 20.6541 3.39598 20.4919C3.38198 20.1329 3.38198 19.7749 3.35298 19.4159C3.3604 19.2348 3.31253 19.0557 3.21571 18.9024C3.1189 18.7492 2.97773 18.629 2.81098 18.5579C2.19398 18.3719 2.21098 17.9579 2.21098 17.4579C2.22498 15.2019 2.21098 12.9649 2.22498 10.7129C2.22498 9.52292 2.58398 9.14992 3.74598 9.14992C5.27998 9.14992 6.79998 9.17892 8.33498 9.13492C8.99498 9.12092 9.15198 9.33492 9.12398 9.95192C9.08098 10.8269 9.09498 11.7159 9.10998 12.6049C9.10998 13.056 9.19883 13.5027 9.37146 13.9194C9.54408 14.3362 9.7971 14.7149 10.1161 15.0338C10.435 15.3528 10.8137 15.6058 11.2305 15.7784C11.6472 15.9511 12.0939 16.0399 12.545 16.0399C12.9961 16.0399 13.4427 15.9511 13.8595 15.7784C14.2763 15.6058 14.6549 15.3528 14.9739 15.0338C15.2929 14.7149 15.5459 14.3362 15.7185 13.9194C15.8911 13.5027 15.98 13.056 15.98 12.6049C15.994 11.6729 16.009 10.7409 15.98 9.80492C15.965 9.33492 16.094 9.13492 16.611 9.13492C20.024 9.14892 23.452 9.14892 26.865 9.13492C27.353 9.13492 27.482 9.32092 27.465 9.76592C27.436 10.6979 27.451 11.6299 27.465 12.5659C27.465 13.4788 27.8276 14.3543 28.4731 14.9998C29.1186 15.6453 29.9941 16.0079 30.907 16.0079C31.8199 16.0079 32.6953 15.6453 33.3408 14.9998C33.9863 14.3543 34.349 13.4788 34.349 12.5659C34.363 11.6659 34.378 10.7449 34.349 9.84092C34.335 9.32492 34.478 9.12392 35.023 9.14092C38.424 9.16392 41.811 9.14992 45.211 9.13492C45.727 9.13492 45.856 9.32092 45.842 9.80892C45.813 10.7409 45.828 11.6729 45.842 12.6089C45.842 13.5199 46.2039 14.3936 46.8481 15.0378C47.4923 15.682 48.366 16.0439 49.277 16.0439C50.188 16.0439 51.0617 15.682 51.7059 15.0378C52.3501 14.3936 52.712 13.5199 52.712 12.6089C52.726 11.6479 52.726 10.7019 52.712 9.74092C52.698 9.32492 52.827 9.14092 53.271 9.15292C54.963 9.16692 56.671 9.15292 58.362 9.16692C58.524 9.14865 58.688 9.16662 58.8423 9.21953C58.9965 9.27244 59.137 9.35897 59.2537 9.47286C59.3703 9.58675 59.4602 9.72515 59.5168 9.87805C59.5734 10.0309 59.5953 10.1945 59.581 10.3569C59.5956 12.8669 59.5956 15.3766 59.581 17.8859C59.581 18.0719 59.624 18.2859 59.381 18.3589C58.492 18.6169 58.391 19.2909 58.434 20.0659C58.448 20.2089 58.42 20.3529 58.42 20.4959C57.2944 20.6584 56.1552 20.7063 55.02 20.6389C55.006 20.2389 55.02 19.8389 54.977 19.4389C54.9598 19.1501 54.833 18.8787 54.6224 18.6802C54.4118 18.4818 54.1333 18.3713 53.844 18.3713C53.5546 18.3713 53.2762 18.4818 53.0656 18.6802C52.855 18.8787 52.7282 19.1501 52.711 19.4389C52.668 19.8389 52.682 20.2389 52.668 20.6389H49.268C49.254 20.2389 49.268 19.8389 49.225 19.4389C49.2078 19.1501 49.081 18.8787 48.8704 18.6802C48.6598 18.4818 48.3813 18.3713 48.092 18.3713C47.8026 18.3713 47.5242 18.4818 47.3136 18.6802C47.103 18.8787 46.9762 19.1501 46.959 19.4389C46.916 19.8389 46.93 20.2389 46.916 20.6389H43.511C43.497 20.2389 43.511 19.8389 43.468 19.4389C43.4386 19.1604 43.3072 18.9027 43.0992 18.7152C42.8913 18.5277 42.6213 18.4237 42.3413 18.4232C42.0613 18.4227 41.7909 18.5257 41.5823 18.7125C41.3736 18.8993 41.2414 19.1566 41.211 19.4349C41.168 19.8349 41.182 20.2349 41.168 20.6349H37.768C37.754 20.2349 37.768 19.8349 37.725 19.4349C37.7078 19.1461 37.581 18.8747 37.3704 18.6762C37.1598 18.4778 36.8813 18.3673 36.592 18.3673C36.3026 18.3673 36.0242 18.4778 35.8136 18.6762C35.603 18.8747 35.4762 19.1461 35.459 19.4349C35.5483 19.8283 35.5809 20.2323 35.556 20.6349Z" fill="#ABE2FE"/>
<path d="M57.4131 54.083C58.2611 54.3302 59.0347 54.7833 59.6651 55.402C59.6651 56.377 59.6941 57.367 59.6791 58.342C59.6651 59.242 59.2491 59.618 58.3451 59.661C58.1011 59.675 57.8721 59.661 57.6281 59.661H3.66011C2.75611 59.633 2.34011 59.246 2.32611 58.343C2.31211 57.368 2.32611 56.378 2.34011 55.403C2.97632 54.7918 3.74794 54.3395 4.59211 54.083C4.68375 54.4065 4.89018 54.6855 5.17274 54.8677C5.45531 55.05 5.79461 55.123 6.12711 55.073C10.7271 55.059 15.3491 55.073 19.9531 55.073C31.8704 55.073 43.7928 55.0763 55.7201 55.083C56.5101 55.073 57.1411 54.929 57.4131 54.083Z" fill="#EC7898"/>
<path d="M13.7676 8.08901V12.323C13.7676 13.223 13.3376 13.757 12.6206 13.743C11.9316 13.723 11.5156 13.209 11.5156 12.348V3.75701C11.5156 2.86801 11.9746 2.30901 12.6626 2.32301C13.3506 2.33701 13.7626 2.86801 13.7626 3.71401L13.7676 8.08901Z" fill="#FDFEFE"/>
<path d="M32.127 8.07424V12.3742C32.127 13.2352 31.697 13.7362 30.994 13.7362C30.291 13.7362 29.875 13.2232 29.875 12.3622V3.70024C29.875 2.85424 30.334 2.32324 31.008 2.32324C31.682 2.32324 32.127 2.85424 32.127 3.70024V8.07424Z" fill="#FDFEFE"/>
<path d="M50.4864 8.07405V12.3741C50.4864 13.2351 50.0564 13.7361 49.3674 13.7511C48.6784 13.7661 48.2484 13.2371 48.2344 12.3911V3.72905C48.2344 2.88305 48.6934 2.35205 49.3534 2.35205C50.0134 2.35205 50.4714 2.88305 50.4864 3.72905V8.07405Z" fill="#FDFEFE"/>
<path d="M57.4069 54.0832C57.1489 54.9292 56.5179 55.0732 55.7149 55.0732C43.7969 55.0592 31.8739 55.0545 19.9459 55.0592C15.3459 55.0592 10.7239 55.0452 6.11994 55.0592C5.78735 55.1109 5.44735 55.0386 5.16455 54.8561C4.88174 54.6736 4.67583 54.3935 4.58594 54.0692C4.74394 53.0512 5.08594 52.7642 6.19194 52.7642H55.7439C56.9049 52.7782 57.2349 53.0362 57.4069 54.0832Z" fill="#8C6C9E"/>
<path d="M12.6616 33.5601C12.7207 33.6 12.7739 33.6481 12.8196 33.7031C12.8804 33.7788 12.9334 33.8605 12.9776 33.9471C13.2428 34.6473 13.6553 35.2824 14.1872 35.8095C14.7191 36.3365 15.3579 36.7432 16.0606 37.0021C16.5056 37.1881 16.4336 37.4321 16.0466 37.6331C15.9635 37.6817 15.8773 37.7248 15.7886 37.7621C15.1791 37.976 14.6246 38.3224 14.165 38.7763C13.7054 39.2302 13.3521 39.7803 13.1306 40.3871C13.0446 40.6161 12.9306 40.9461 12.6576 40.9751C12.3136 41.0041 12.2126 40.6311 12.1266 40.3871C11.9054 39.7789 11.5516 39.2275 11.0908 38.7731C10.63 38.3187 10.0738 37.9727 9.46255 37.7601C9.24755 37.6741 8.96255 37.5741 8.93155 37.3301C8.90255 37.0431 9.21855 36.9711 9.41955 36.8851C10.0549 36.639 10.6312 36.2616 11.1108 35.7775C11.5904 35.2935 11.9624 34.7137 12.2026 34.0761C12.2886 33.8761 12.3746 33.6171 12.6616 33.5601Z" fill="#ABE2FE"/>
<path d="M48.6011 28.4399C48.8451 28.4399 48.9011 28.6259 48.9741 28.7699C49.1531 29.1986 49.4149 29.5877 49.7445 29.9149C50.0742 30.2422 50.4652 30.5011 50.8951 30.6769C51.2951 30.8489 51.2821 31.0769 50.8951 31.2509C50.0297 31.6103 49.3399 32.2951 48.9741 33.1579C48.8451 33.4579 48.6151 33.7029 48.4151 33.2149C48.2469 32.7812 47.9923 32.386 47.667 32.0534C47.3416 31.7208 46.9521 31.4577 46.5221 31.2799C46.2061 31.1399 46.0061 30.9069 46.4651 30.6919C47.3693 30.2953 48.0805 29.5579 48.4441 28.6399C48.493 28.5706 48.5454 28.5038 48.6011 28.4399V28.4399Z" fill="#ABE2FE"/>
<path d="M6.86719 20.6378C6.88119 20.2378 6.86719 19.8378 6.91019 19.4378C6.92165 19.1471 7.0468 18.8725 7.2587 18.6732C7.4706 18.4738 7.75231 18.3656 8.04319 18.3718C8.33324 18.3656 8.61422 18.4731 8.82598 18.6714C9.03774 18.8697 9.16345 19.143 9.17619 19.4328C9.21919 19.8328 9.20519 20.2328 9.21919 20.6328C9.20519 21.0328 9.21919 21.4328 9.17619 21.8328C9.17518 21.9831 9.14341 22.1315 9.08283 22.269C9.02226 22.4065 8.93416 22.5301 8.82397 22.6322C8.71378 22.7344 8.58384 22.8128 8.44216 22.8628C8.30048 22.9128 8.15007 22.9332 8.00019 22.9228C7.71017 22.9229 7.43189 22.8083 7.22588 22.6042C7.01988 22.4001 6.90282 22.1228 6.90019 21.8328C6.88119 21.4408 6.88119 21.0398 6.86719 20.6378Z" fill="#8C6C9E"/>
<path d="M12.6094 20.6378C12.6234 20.2378 12.6094 19.8378 12.6524 19.4378C12.6638 19.1471 12.789 18.8725 13.0009 18.6732C13.2128 18.4738 13.4945 18.3656 13.7854 18.3718C14.0754 18.3656 14.3564 18.4731 14.5682 18.6714C14.7799 18.8697 14.9056 19.143 14.9184 19.4328C14.9614 19.8328 14.9474 20.2328 14.9614 20.6328C14.9474 21.0328 14.9614 21.4328 14.9184 21.8328C14.9174 21.9831 14.8856 22.1315 14.825 22.269C14.7644 22.4065 14.6763 22.5301 14.5662 22.6322C14.456 22.7344 14.326 22.8128 14.1844 22.8628C14.0427 22.9128 13.8923 22.9332 13.7424 22.9228C13.4524 22.9229 13.1741 22.8083 12.9681 22.6042C12.7621 22.4001 12.645 22.1228 12.6424 21.8328C12.6234 21.4408 12.6234 21.0398 12.6094 20.6378Z" fill="#8C6C9E"/>
<path d="M18.3438 20.6378C18.3578 20.2378 18.3438 19.8378 18.3868 19.4378C18.3982 19.1471 18.5234 18.8725 18.7353 18.6732C18.9472 18.4738 19.2289 18.3656 19.5197 18.3718C19.8098 18.3656 20.0908 18.4731 20.3025 18.6714C20.5143 18.8697 20.64 19.143 20.6528 19.4328C20.6957 19.8328 20.6818 20.2328 20.6957 20.6328C20.6818 21.0328 20.6957 21.4328 20.6528 21.8328C20.6517 21.9831 20.62 22.1315 20.5594 22.269C20.4988 22.4065 20.4107 22.5301 20.3005 22.6322C20.1903 22.7344 20.0604 22.8128 19.9187 22.8628C19.777 22.9128 19.6266 22.9332 19.4768 22.9228C19.1867 22.9229 18.9085 22.8083 18.7024 22.6042C18.4964 22.4001 18.3794 22.1228 18.3767 21.8328C18.3578 21.4408 18.3578 21.0398 18.3438 20.6378Z" fill="#8C6C9E"/>
<path d="M24.0781 20.6378C24.0921 20.2378 24.0781 19.8378 24.1211 19.4378C24.1326 19.1471 24.2577 18.8725 24.4696 18.6732C24.6815 18.4738 24.9632 18.3656 25.2541 18.3718C25.5442 18.3656 25.8252 18.4731 26.0369 18.6714C26.2487 18.8697 26.3744 19.143 26.3871 19.4328C26.4301 19.8328 26.4161 20.2328 26.4301 20.6328C26.4161 21.0328 26.4301 21.4328 26.3871 21.8328C26.3861 21.9831 26.3543 22.1315 26.2938 22.269C26.2332 22.4065 26.1451 22.5301 26.0349 22.6322C25.9247 22.7344 25.7948 22.8128 25.6531 22.8628C25.5114 22.9128 25.361 22.9332 25.2111 22.9228C24.9211 22.9229 24.6428 22.8083 24.4368 22.6042C24.2308 22.4001 24.1138 22.1228 24.1111 21.8328C24.0921 21.4408 24.0921 21.0398 24.0781 20.6378Z" fill="#8C6C9E"/>
<path d="M29.8203 20.6378C29.8343 20.2378 29.8203 19.8378 29.8633 19.4378C29.8748 19.1471 29.9999 18.8725 30.2118 18.6732C30.4237 18.4738 30.7054 18.3656 30.9963 18.3718C31.2864 18.3656 31.5673 18.4731 31.7791 18.6714C31.9909 18.8697 32.1166 19.143 32.1293 19.4328C32.1723 19.8328 32.1583 20.2328 32.1723 20.6328C32.1583 21.0328 32.1723 21.4328 32.1293 21.8328C32.1283 21.9831 32.0965 22.1315 32.036 22.269C31.9754 22.4065 31.8873 22.5301 31.7771 22.6322C31.6669 22.7344 31.537 22.8128 31.3953 22.8628C31.2536 22.9128 31.1032 22.9332 30.9533 22.9228C30.6633 22.9229 30.385 22.8083 30.179 22.6042C29.973 22.4001 29.8559 22.1228 29.8533 21.8328C29.8343 21.4408 29.8343 21.0398 29.8203 20.6378Z" fill="#8C6C9E"/>
<path d="M35.5547 20.6378C35.5687 20.2378 35.5547 19.8378 35.5977 19.4378C35.6092 19.1471 35.7343 18.8725 35.9462 18.6732C36.1581 18.4738 36.4398 18.3656 36.7307 18.3718C37.0207 18.3656 37.3017 18.4731 37.5135 18.6714C37.7252 18.8697 37.8509 19.143 37.8637 19.4328C37.9067 19.8328 37.8927 20.2328 37.9067 20.6328C37.8927 21.0328 37.9067 21.4328 37.8637 21.8328C37.8627 21.9831 37.8309 22.1315 37.7703 22.269C37.7098 22.4065 37.6217 22.5301 37.5115 22.6322C37.4013 22.7344 37.2713 22.8128 37.1297 22.8628C36.988 22.9128 36.8376 22.9332 36.6877 22.9228C36.3977 22.9229 36.1194 22.8083 35.9134 22.6042C35.7074 22.4001 35.5903 22.1228 35.5877 21.8328C35.5687 21.4408 35.5687 21.0398 35.5547 20.6378Z" fill="#8C6C9E"/>
<path d="M41.2891 20.6378C41.3031 20.2378 41.2891 19.8378 41.3321 19.4378C41.3435 19.1471 41.4687 18.8725 41.6806 18.6732C41.8925 18.4738 42.1742 18.3656 42.4651 18.3718C42.7551 18.3656 43.0361 18.4731 43.2479 18.6714C43.4596 18.8697 43.5853 19.143 43.5981 19.4328C43.6411 19.8328 43.6271 20.2328 43.6411 20.6328C43.6271 21.0328 43.6411 21.4328 43.5981 21.8328C43.5971 21.9831 43.5653 22.1315 43.5047 22.269C43.4441 22.4065 43.356 22.5301 43.2458 22.6322C43.1357 22.7344 43.0057 22.8128 42.864 22.8628C42.7224 22.9128 42.5719 22.9332 42.4221 22.9228C42.132 22.9229 41.8538 22.8083 41.6478 22.6042C41.4418 22.4001 41.3247 22.1228 41.3221 21.8328C41.3031 21.4408 41.3031 21.0398 41.2891 20.6378Z" fill="#8C6C9E"/>
<path d="M47.0234 20.6378C47.0374 20.2378 47.0234 19.8378 47.0664 19.4378C47.0779 19.1471 47.2031 18.8725 47.415 18.6732C47.6269 18.4738 47.9086 18.3656 48.1994 18.3718C48.4895 18.3656 48.7705 18.4731 48.9822 18.6714C49.194 18.8697 49.3197 19.143 49.3324 19.4328C49.3754 19.8328 49.3614 20.2328 49.3754 20.6328C49.3614 21.0328 49.3754 21.4328 49.3324 21.8328C49.3314 21.9831 49.2997 22.1315 49.2391 22.269C49.1785 22.4065 49.0904 22.5301 48.9802 22.6322C48.87 22.7344 48.7401 22.8128 48.5984 22.8628C48.4567 22.9128 48.3063 22.9332 48.1564 22.9228C47.8664 22.9229 47.5881 22.8083 47.3821 22.6042C47.1761 22.4001 47.0591 22.1228 47.0564 21.8328C47.0374 21.4408 47.0374 21.0398 47.0234 20.6378Z" fill="#8C6C9E"/>
<path d="M52.7656 20.6378C52.7796 20.2378 52.7656 19.8378 52.8086 19.4378C52.8201 19.1471 52.9452 18.8725 53.1571 18.6732C53.369 18.4738 53.6507 18.3656 53.9416 18.3718C54.2317 18.3656 54.5127 18.4731 54.7244 18.6714C54.9362 18.8697 55.0619 19.143 55.0746 19.4328C55.1176 19.8328 55.1036 20.2328 55.1176 20.6328C55.1036 21.0328 55.1176 21.4328 55.0746 21.8328C55.0736 21.9831 55.0418 22.1315 54.9813 22.269C54.9207 22.4065 54.8326 22.5301 54.7224 22.6322C54.6122 22.7344 54.4823 22.8128 54.3406 22.8628C54.1989 22.9128 54.0485 22.9332 53.8986 22.9228C53.6086 22.9229 53.3303 22.8083 53.1243 22.6042C52.9183 22.4001 52.8013 22.1228 52.7986 21.8328C52.7796 21.4408 52.7796 21.0398 52.7656 20.6378Z" fill="#8C6C9E"/>
<path d="M51.3552 47.7301C51.3571 47.8081 51.3327 47.8844 51.2859 47.9469C51.2391 48.0093 51.1726 48.0541 51.0972 48.0741C50.6351 48.2809 50.2632 48.6478 50.0502 49.1071C49.8922 49.4231 49.6912 49.5801 49.4762 49.1361C49.2534 48.6551 48.8671 48.2689 48.3862 48.0461C48.0132 47.8741 48.0422 47.6731 48.3862 47.5301C48.8474 47.3289 49.2196 46.9667 49.4332 46.5111C49.6192 46.1381 49.8632 46.0521 50.0642 46.5111C50.2621 46.9509 50.6195 47.2993 51.0642 47.4861C51.1287 47.5004 51.1888 47.5301 51.2395 47.5725C51.2901 47.615 51.3298 47.669 51.3552 47.7301Z" fill="#ABE2FE"/>
<path d="M28.7576 29.7132C28.8489 29.8344 28.9154 29.9725 28.9533 30.1194C28.9911 30.2664 28.9997 30.4194 28.9784 30.5696C28.9572 30.7199 28.9065 30.8645 28.8293 30.9952C28.7521 31.1258 28.65 31.24 28.5286 31.3312L19.2976 38.2702L15.2556 33.0202C15.0686 32.7774 14.9858 32.4702 15.0253 32.1663C15.0647 31.8624 15.2233 31.5866 15.4661 31.3997C15.7089 31.2127 16.0161 31.1298 16.32 31.1693C16.6239 31.2088 16.8996 31.3674 17.0866 31.6102L19.7346 35.0522L27.1406 29.4842C27.3854 29.3002 27.6933 29.2209 27.9965 29.2639C28.2998 29.3068 28.5735 29.4684 28.7576 29.7132Z" fill="white"/>
<path d="M28.7633 39.3411C28.8546 39.4623 28.9211 39.6004 28.959 39.7473C28.9969 39.8943 29.0054 40.0473 28.9842 40.1975C28.9629 40.3478 28.9122 40.4924 28.835 40.6231C28.7579 40.7537 28.6557 40.8679 28.5343 40.9591L19.3343 47.8751L15.0933 42.7471C14.898 42.511 14.8045 42.2071 14.8332 41.902C14.862 41.597 15.0108 41.3159 15.2468 41.1206C15.4829 40.9253 15.7869 40.8317 16.0919 40.8605C16.3969 40.8893 16.678 41.038 16.8733 41.2741L19.7093 44.7021L27.1453 39.1121C27.2666 39.0208 27.4046 38.9543 27.5516 38.9165C27.6986 38.8786 27.8515 38.87 28.0018 38.8913C28.1521 38.9125 28.2967 38.9632 28.4273 39.0404C28.558 39.1176 28.6722 39.2198 28.7633 39.3411Z" fill="white"/>
<path d="M31.5625 33.489C31.5625 33.1827 31.6842 32.8889 31.9008 32.6723C32.1174 32.4557 32.4112 32.334 32.7175 32.334H47.4895C47.796 32.334 48.0899 32.4557 48.3066 32.6724C48.5233 32.8891 48.645 33.183 48.645 33.4895C48.645 33.7959 48.5233 34.0898 48.3066 34.3065C48.0899 34.5232 47.796 34.645 47.4895 34.645H32.7175C32.5657 34.645 32.4155 34.6151 32.2753 34.557C32.1351 34.4989 32.0077 34.4137 31.9004 34.3063C31.7932 34.199 31.7081 34.0715 31.6501 33.9313C31.5921 33.791 31.5624 33.6407 31.5625 33.489Z" fill="white"/>
<path d="M31.5625 43.1159C31.5625 42.8096 31.6842 42.5158 31.9008 42.2992C32.1174 42.0826 32.4112 41.9609 32.7175 41.9609H47.4895C47.796 41.9609 48.0899 42.0827 48.3066 42.2994C48.5233 42.5161 48.645 42.81 48.645 43.1164C48.645 43.4229 48.5233 43.7168 48.3066 43.9335C48.0899 44.1502 47.796 44.2719 47.4895 44.2719H32.7175C32.5657 44.2719 32.4155 44.242 32.2753 44.1839C32.1351 44.1258 32.0077 44.0406 31.9004 43.9333C31.7932 43.8259 31.7081 43.6985 31.6501 43.5582C31.5921 43.418 31.5624 43.2677 31.5625 43.1159Z" fill="white"/>
</svg>
