<svg width="140" height="140" viewBox="0 0 140 140" fill="none" xmlns="http://www.w3.org/2000/svg">
<path d="M70 140C108.66 140 140 108.66 140 70C140 31.3401 108.66 0 70 0C31.3401 0 0 31.3401 0 70C0 108.66 31.3401 140 70 140Z" fill="white"/>
<path d="M91.7237 59.9371C92.7512 56.7612 93.3236 53.4557 93.4237 50.1191C93.41 49.371 93.631 48.6374 94.0557 48.0215C94.4805 47.4055 95.0876 46.9382 95.7917 46.6851C96.6366 46.3613 97.5721 46.3658 98.4138 46.6977C99.2555 47.0296 99.9423 47.6648 100.339 48.4781C103.928 54.3496 106.598 60.7354 108.257 67.4141C110.085 74.4538 110.702 81.7534 110.081 89.0001C108.307 107.679 93.8967 123.25 75.2627 125.676C65.1218 126.915 54.8905 124.237 46.6574 118.188C38.4243 112.139 32.8104 103.176 30.9617 93.1281C29.1317 82.5761 31.3317 72.9441 37.0227 63.9731C39.3915 60.4854 41.4363 56.7883 43.1317 52.9281C44.4047 49.7935 45.169 46.4757 45.3957 43.1001C45.6237 39.6911 47.9537 38.2521 51.0817 39.5651C53.0151 40.3581 54.8563 41.3593 56.5727 42.5511C57.2227 43.0101 57.3817 42.9211 57.5067 42.1281C58.7356 34.4891 58.2827 26.674 56.1797 19.2281C55.5587 17.0001 56.1697 15.3001 57.8667 14.4321C58.4032 14.1366 59.008 13.9873 59.6203 13.9992C60.2327 14.0111 60.8312 14.1839 61.3557 14.5001C77.5417 23.7171 88.0727 37.0231 91.1317 55.7211C91.2427 56.3951 91.2977 57.0781 91.3867 57.7561C91.3834 58.4963 91.4972 59.2324 91.7237 59.9371V59.9371ZM87.1637 80.3001C85.6357 79.5001 85.4487 78.9941 86.0017 77.0241C88.6748 67.9714 88.6422 58.3345 85.9077 49.3001C81.6767 35.4661 72.7477 25.4181 60.4077 18.2001C60.2407 18.1001 60.0597 17.8921 59.7637 18.1001L61.0517 23.6001C61.0677 23.8271 61.0647 24.0571 61.1017 24.2811C62.2505 31.1883 62.159 38.245 60.8317 45.1201C60.7778 45.3939 60.7977 45.6771 60.8892 45.9406C60.9808 46.2042 61.1407 46.4387 61.3527 46.6201C63.9428 49.433 65.6574 52.9395 66.2867 56.7111C66.5187 58.0381 65.9757 58.9781 64.8987 59.1731C63.7607 59.3791 62.9337 58.7551 62.6907 57.4381C61.3317 50.0371 56.2877 45.9291 49.8437 43.0671C49.2577 42.8071 49.0437 42.9501 49.0017 43.6031C48.5159 49.764 46.5265 55.7118 43.2077 60.9251C41.2317 64.1681 39.1657 67.3591 37.4917 70.7741C33.7733 78.2718 32.9374 86.8738 35.1427 94.9471C35.1447 95.0229 35.1524 95.0985 35.1657 95.1731C40.3457 115.873 63.1237 127.725 82.9427 119.834C94.5747 115.2 101.932 106.558 105.295 94.5091C105.388 94.1811 105.495 93.8561 105.573 93.5241C106.698 88.1618 106.934 82.6511 106.273 77.2121C105.355 68.1493 102.501 59.3893 97.9037 51.5251C97.7277 51.2251 97.6557 50.7891 97.1457 50.7091C97.1007 51.0201 97.0327 51.3151 97.0167 51.6091C96.7022 57.7479 94.8264 63.7048 91.5667 68.9161C91.3456 69.3146 91.2126 69.7558 91.1767 70.2101C90.7789 72.9922 90.1878 75.7432 89.4077 78.4431C89.3283 78.9748 89.0553 79.4584 88.6412 79.8011C88.227 80.1439 87.7009 80.3216 87.1637 80.3001V80.3001Z" fill="#8C6C9E"/>
<path d="M35.1446 94.9462C32.9392 86.8729 33.7751 78.2709 37.4936 70.7732C39.1676 67.3582 41.2366 64.1672 43.2086 60.9242C46.5278 55.711 48.5176 49.7633 49.0036 43.6022C49.0466 42.9492 49.2606 42.8022 49.8456 43.0662C56.2886 45.9282 61.3296 50.0352 62.6916 57.4422C62.9336 58.7582 63.7606 59.3832 64.8996 59.1772C65.9766 58.9772 66.5206 58.0412 66.2876 56.7152C65.6584 52.9433 63.9439 49.4364 61.3536 46.6232C61.1415 46.4419 60.9815 46.2074 60.8899 45.9438C60.7984 45.6802 60.7786 45.397 60.8326 45.1232C62.162 38.2454 62.2544 31.1856 61.1056 24.2752C61.0686 24.0512 61.0706 23.8212 61.0536 23.5942C62.0536 24.3852 63.0276 25.2062 64.0536 25.9572C65.2656 26.8422 66.1336 28.1202 67.4536 28.8722C66.5226 30.1722 66.5536 30.7272 67.5976 31.9662C68.2303 32.7149 68.8593 33.4672 69.4846 34.2232C70.4436 35.3832 70.9926 35.5172 72.4356 34.9232L74.8686 38.5052C73.7146 39.5342 73.5796 40.1222 74.3086 41.4692C76.9178 46.2669 78.7195 51.4614 79.6416 56.8442C79.8916 58.2992 80.3286 58.6572 81.8086 58.8442C81.9026 59.8982 82.0646 60.9442 82.0846 62.0062C82.1164 65.7528 81.7239 69.491 80.9146 73.1492C80.6117 74.7067 80.9066 76.3212 81.7405 77.671C82.5744 79.0209 83.8862 80.0071 85.4146 80.4332C85.6955 80.5489 85.9999 80.5963 86.3027 80.5716C86.6055 80.5469 86.8981 80.4508 87.1566 80.2912C87.693 80.3115 88.218 80.1334 88.6314 79.7911C89.0448 79.4487 89.3176 78.966 89.3976 78.4352C90.1776 75.7353 90.7687 72.9843 91.1666 70.2022C91.2024 69.748 91.3354 69.3067 91.5566 68.9082C94.8162 63.6969 96.692 57.74 97.0066 51.6012C97.0226 51.3012 97.0896 51.0092 97.1356 50.7012C97.6456 50.7812 97.7176 51.2142 97.8936 51.5172C102.491 59.3814 105.345 68.1414 106.263 77.2042C106.924 82.6432 106.688 88.154 105.563 93.5162C105.488 93.8482 105.378 94.1732 105.285 94.5012C103.912 94.1012 102.554 93.6292 101.163 93.3012C100.23 93.0684 99.2551 93.0558 98.3164 93.2644C97.3776 93.473 96.5002 93.8971 95.7536 94.5032C94.9976 94.1672 94.2356 93.8432 93.4866 93.4932C91.9296 92.7662 90.8726 92.9362 90.3576 94.0162C89.8226 95.1372 90.3816 96.0772 92.0176 96.8162C92.3616 96.9712 92.6996 97.1382 93.0396 97.2992C92.4616 99.3992 91.0646 101.02 89.8246 102.731C89.3086 102.231 88.7956 101.731 88.2766 101.231C87.3326 100.325 86.3606 100.236 85.5596 100.976C85.3709 101.164 85.2234 101.388 85.1266 101.636C85.0298 101.884 84.9859 102.149 84.9975 102.415C85.0092 102.68 85.0763 102.941 85.1944 103.179C85.3126 103.417 85.4792 103.628 85.6836 103.798C86.1636 104.334 86.6556 104.858 87.1426 105.388C85.6369 106.924 83.8825 108.194 81.9536 109.145C81.5966 108.273 81.2656 107.389 80.8766 106.531C80.7934 106.301 80.6646 106.09 80.4977 105.911C80.3309 105.732 80.1295 105.588 79.9058 105.489C79.682 105.389 79.4405 105.336 79.1957 105.333C78.9509 105.329 78.7079 105.375 78.4814 105.468C78.2549 105.561 78.0495 105.699 77.8775 105.873C77.7056 106.047 77.5707 106.255 77.4809 106.482C77.3912 106.71 77.3484 106.954 77.3552 107.198C77.362 107.443 77.4183 107.684 77.5206 107.906C77.8466 108.83 78.2126 109.74 78.5616 110.656C76.4955 111.352 74.34 111.746 72.1616 111.826C72.1426 110.959 72.1316 110.092 72.1036 109.226C72.0616 107.939 71.4126 107.172 70.3556 107.139C69.2716 107.106 68.5266 107.916 68.4666 109.232C68.4266 110.098 68.4236 110.966 68.4046 111.832C66.2616 111.65 64.1046 111.548 62.1796 110.401C62.4936 109.589 62.8396 108.787 63.1156 107.961C63.2055 107.738 63.2505 107.5 63.248 107.26C63.2455 107.02 63.1956 106.782 63.1011 106.562C63.0066 106.341 62.8694 106.141 62.6973 105.973C62.5253 105.806 62.3218 105.674 62.0986 105.585C61.8754 105.496 61.6369 105.452 61.3967 105.456C61.1565 105.46 60.9195 105.511 60.6991 105.607C60.4788 105.702 60.2795 105.841 60.1128 106.014C59.9461 106.186 59.8152 106.391 59.7276 106.614C59.3356 107.432 58.9906 108.273 58.6276 109.103C57.7596 108.577 56.8546 108.103 56.0346 107.51C55.0331 106.988 54.1842 106.215 53.5706 105.266C54.1066 104.682 54.6706 104.121 55.1706 103.509C55.3302 103.334 55.4537 103.129 55.5339 102.906C55.6141 102.683 55.6494 102.446 55.6379 102.209C55.6264 101.973 55.5682 101.741 55.4667 101.526C55.3653 101.312 55.2225 101.12 55.0466 100.961C54.7143 100.642 54.2688 100.467 53.8077 100.475C53.3466 100.483 52.9075 100.673 52.5866 101.004C52.0476 101.475 51.5526 101.996 51.0386 102.495C49.3909 101.153 48.2024 99.3311 47.6386 97.2822C48.1536 97.0402 48.6736 96.8062 49.1846 96.5552C49.4294 96.475 49.6551 96.3453 49.8477 96.1741C50.0403 96.003 50.1957 95.7941 50.3042 95.5605C50.4127 95.3268 50.472 95.0733 50.4784 94.8157C50.4849 94.5582 50.4383 94.302 50.3416 94.0632C50.2356 93.8287 50.0821 93.6187 49.8908 93.4466C49.6994 93.2744 49.4744 93.1439 49.23 93.0632C48.9856 92.9826 48.7271 92.9536 48.4709 92.978C48.2147 93.0024 47.9664 93.0798 47.7416 93.2052C46.7216 93.6152 45.7116 94.0512 44.6976 94.4752C43.9278 93.9468 43.0523 93.5921 42.1318 93.4357C41.2113 93.2793 40.2678 93.3248 39.3666 93.5692C37.9356 93.9502 36.5536 94.4822 35.1446 94.9462Z" fill="#9ADEF8"/>
<path d="M72.1566 111.824C74.335 111.744 76.4905 111.35 78.5566 110.655C78.6786 110.928 78.7886 111.208 78.9246 111.474C79.0991 111.898 79.4298 112.238 79.8481 112.424C80.2664 112.61 80.7403 112.628 81.1716 112.474C81.3881 112.408 81.5894 112.301 81.7642 112.157C81.9389 112.013 82.0836 111.836 82.1899 111.637C82.2963 111.437 82.3622 111.218 82.3839 110.993C82.4057 110.768 82.3828 110.541 82.3166 110.324C82.2153 109.925 82.0918 109.532 81.9466 109.147C83.8756 108.195 85.6297 106.924 87.1346 105.387C87.4406 105.67 87.7346 105.969 88.0546 106.234C88.3972 106.558 88.8523 106.736 89.3237 106.731C89.7951 106.725 90.2458 106.536 90.5804 106.204C90.915 105.872 91.1072 105.422 91.1164 104.951C91.1256 104.48 90.951 104.023 90.6296 103.678C90.3726 103.351 90.0896 103.045 89.8186 102.73C91.0586 101.019 92.4556 99.4013 93.0336 97.2983C93.2756 97.3983 93.5206 97.4903 93.7606 97.5983C94.9866 98.1223 95.7976 97.9873 96.3606 97.1633C96.9236 96.3393 96.7306 95.4513 95.7496 94.5103C96.4978 93.9027 97.3773 93.4779 98.3183 93.2696C99.2593 93.0613 100.236 93.0752 101.171 93.3103C102.562 93.6373 103.92 94.1043 105.293 94.5103C101.93 106.558 94.5716 115.204 82.9406 119.835C63.1226 127.724 40.3406 115.872 35.1636 95.1733C35.1505 95.0987 35.1428 95.0231 35.1406 94.9473C36.5406 94.4833 37.9316 93.9473 39.3586 93.5723C40.2598 93.328 41.2033 93.2825 42.1238 93.4389C43.0443 93.5953 43.9198 93.95 44.6896 94.4783C44.5696 94.5693 44.4456 94.6543 44.3316 94.7513C43.9341 95.0127 43.6548 95.4196 43.5539 95.8846C43.4529 96.3496 43.5383 96.8356 43.7916 97.2383C44.0283 97.632 44.4079 97.9191 44.8511 98.0398C45.2943 98.1605 45.767 98.1056 46.1706 97.8863L47.6286 97.2863C48.1926 99.3349 49.381 101.157 51.0286 102.498C50.6546 102.918 50.2556 103.319 49.9136 103.763C49.6187 104.112 49.4672 104.559 49.4897 105.015C49.5121 105.471 49.7069 105.901 50.0346 106.219C50.3624 106.536 50.7985 106.718 51.2548 106.726C51.7112 106.734 52.1536 106.569 52.4926 106.263C52.8716 105.963 53.2056 105.599 53.5606 105.263C54.1742 106.212 55.0231 106.985 56.0246 107.507C56.8436 108.1 57.7496 108.574 58.6176 109.1C58.5176 109.424 58.4106 109.746 58.3176 110.073C58.1615 110.514 58.1819 110.998 58.3747 111.423C58.5675 111.849 58.9176 112.184 59.3517 112.357C59.7857 112.53 60.27 112.528 60.7029 112.352C61.1358 112.176 61.4837 111.839 61.6736 111.412C61.8526 111.081 62.0066 110.736 62.1736 110.398C64.0946 111.545 66.2556 111.647 68.3986 111.829C68.4166 112.018 68.4336 112.207 68.4546 112.395C68.6076 113.712 69.2656 114.395 70.3546 114.363C71.4106 114.335 71.9846 113.685 72.1006 112.39C72.1186 112.204 72.1406 112.016 72.1566 111.824Z" fill="#7FD4EE"/>
<path d="M74.8716 38.5082L72.4386 34.9252C73.2496 33.6872 73.2446 33.0952 72.3556 31.9772C71.699 31.1518 71.0233 30.3412 70.3286 29.5452C69.3466 28.4212 68.8506 28.3162 67.4556 28.8702C66.1346 28.1182 65.2666 26.8402 64.0556 25.9552C63.0276 25.2052 62.0556 24.3822 61.0556 23.5922L59.7656 18.0942C60.0656 17.8942 60.2426 18.1002 60.4096 18.1942C72.7486 25.4122 81.6766 35.4602 85.9096 49.2942C88.6444 58.3292 88.6771 67.9668 86.0036 77.0202C85.4516 78.9902 85.6386 79.5012 87.1656 80.2962C86.9071 80.4558 86.6145 80.5519 86.3117 80.5766C86.0089 80.6013 85.7045 80.5539 85.4236 80.4382C83.8952 80.012 82.5834 79.0258 81.7495 77.676C80.9156 76.3261 80.6207 74.7117 80.9236 73.1542C81.7329 69.4959 82.1254 65.7577 82.0936 62.0112C82.0736 60.9462 81.9126 59.9022 81.8176 58.8492C83.1796 58.3202 83.5126 57.7542 83.2816 56.3392C82.329 50.5195 80.3963 44.9035 77.5656 39.7302C76.8516 38.4232 76.4116 38.2292 74.8716 38.5082Z" fill="#C4EDFD"/>
<path d="M74.8694 38.5092C76.4104 38.2292 76.8504 38.4222 77.5594 39.7312C80.3897 44.9057 82.3221 50.5227 83.2744 56.3432C83.5054 57.7582 83.1744 58.3242 81.8104 58.8532C80.3304 58.6612 79.8924 58.3032 79.6434 56.8532C78.7213 51.4689 76.9192 46.2731 74.3094 41.4742C73.5804 40.1272 73.7164 39.5392 74.8694 38.5092Z" fill="#8D6EA0"/>
<path d="M67.4571 28.8721C68.8511 28.3171 69.3471 28.4221 70.3291 29.5451C71.0231 30.3404 71.6987 31.1514 72.3561 31.9781C73.2451 33.0961 73.2491 33.6871 72.4391 34.9261C70.9961 35.5171 70.4471 35.3831 69.4881 34.2261C68.8634 33.4681 68.2344 32.7147 67.6011 31.9661C66.5531 30.7271 66.5251 30.1711 67.4571 28.8721Z" fill="#8D6EA0"/>
<path d="M81.9479 109.146C82.0933 109.531 82.2168 109.924 82.3179 110.323C82.3844 110.54 82.4074 110.767 82.3858 110.993C82.3641 111.218 82.2982 111.437 82.1917 111.637C82.0852 111.837 81.9403 112.014 81.7653 112.158C81.5903 112.302 81.3887 112.41 81.1719 112.475C80.7406 112.629 80.2667 112.611 79.8484 112.425C79.4301 112.239 79.0994 111.899 78.9249 111.475C78.7889 111.209 78.6789 110.929 78.5569 110.656C78.2079 109.742 77.8409 108.832 77.5149 107.911C77.4092 107.689 77.3501 107.447 77.3411 107.201C77.332 106.955 77.3734 106.71 77.4625 106.481C77.5516 106.251 77.6867 106.042 77.8594 105.867C78.0321 105.691 78.2388 105.553 78.4669 105.46C78.6939 105.364 78.9384 105.315 79.1851 105.317C79.4318 105.319 79.6755 105.372 79.9007 105.473C80.126 105.573 80.3281 105.719 80.4943 105.902C80.6606 106.084 80.7874 106.299 80.8669 106.532C81.2599 107.39 81.5909 108.273 81.9479 109.146Z" fill="#8D6EA0"/>
<path d="M62.1778 110.401C62.0128 110.74 61.8598 111.085 61.6778 111.415C61.4843 111.836 61.1364 112.168 60.7058 112.34C60.2752 112.512 59.7949 112.512 59.3642 112.34C58.9335 112.168 58.5854 111.837 58.3917 111.416C58.1981 110.994 58.1738 110.515 58.3238 110.076C58.4148 109.749 58.5238 109.427 58.6238 109.103C58.9888 108.272 59.3358 107.432 59.7258 106.613C59.9045 106.164 60.2544 105.804 60.6985 105.613C61.1426 105.421 61.6445 105.414 62.0938 105.593C62.5431 105.772 62.9029 106.122 63.0942 106.566C63.2855 107.01 63.2925 107.512 63.1138 107.961C62.8358 108.786 62.4928 109.588 62.1778 110.401Z" fill="#8D6EA0"/>
<path d="M89.8238 102.728C90.0948 103.043 90.3778 103.349 90.6348 103.676C90.9562 104.021 91.1308 104.477 91.1216 104.949C91.1124 105.42 90.9201 105.869 90.5855 106.202C90.251 106.534 89.8003 106.723 89.3288 106.728C88.8574 106.734 88.4023 106.556 88.0598 106.232C87.7388 105.967 87.4458 105.669 87.1398 105.385C86.6528 104.855 86.1608 104.331 85.6808 103.795C85.4772 103.625 85.3113 103.414 85.1938 103.176C85.0762 102.938 85.0095 102.678 84.9979 102.413C84.9863 102.148 85.0301 101.883 85.1265 101.636C85.2229 101.389 85.3698 101.164 85.5578 100.977C86.3578 100.237 87.3308 100.327 88.2748 101.232C88.7928 101.726 89.3078 102.228 89.8238 102.728Z" fill="#8D6EA0"/>
<path d="M47.6324 97.2853L46.1744 97.8853C45.7708 98.105 45.2979 98.1603 44.8545 98.0397C44.4111 97.9192 44.0313 97.6321 43.7944 97.2383C43.5413 96.8355 43.4561 96.3496 43.5571 95.8847C43.658 95.4198 43.937 95.0129 44.3344 94.7513C44.4484 94.6513 44.5724 94.5683 44.6924 94.4783C45.7064 94.0543 46.7164 93.6183 47.7364 93.2063C47.9611 93.0809 48.2095 93.0035 48.4657 92.9791C48.7219 92.9547 48.9804 92.9837 49.2248 93.0643C49.4692 93.145 49.6942 93.2755 49.8856 93.4477C50.0769 93.6198 50.2304 93.8298 50.3364 94.0643C50.4334 94.3033 50.4802 94.5597 50.4738 94.8175C50.4675 95.0754 50.4082 95.3292 50.2996 95.5631C50.1909 95.797 50.0354 96.0061 49.8425 96.1773C49.6496 96.3485 49.4235 96.4782 49.1784 96.5583C48.6664 96.8063 48.1474 97.0423 47.6324 97.2853Z" fill="#8D6EA0"/>
<path d="M72.1593 111.827C72.1413 112.016 72.1203 112.204 72.1043 112.393C71.9883 113.693 71.4133 114.338 70.3583 114.366C69.2693 114.396 68.6123 113.715 68.4583 112.398C68.4363 112.21 68.4203 112.021 68.4023 111.832C68.4213 110.965 68.4243 110.097 68.4643 109.232C68.5253 107.916 69.2693 107.106 70.3533 107.138C71.4113 107.172 72.0603 107.938 72.1023 109.226C72.1293 110.092 72.1403 110.96 72.1593 111.827Z" fill="#8D6EA0"/>
<path d="M53.5668 105.266C53.2118 105.601 52.8778 105.961 52.4988 106.266C52.1629 106.578 51.7185 106.747 51.2602 106.736C50.8019 106.725 50.3658 106.536 50.0448 106.209C49.7081 105.898 49.5063 105.468 49.4828 105.011C49.4592 104.553 49.6157 104.105 49.9188 103.761C50.2618 103.317 50.6608 102.916 51.0338 102.496C51.5488 101.997 52.0428 101.474 52.5818 101.004C52.9028 100.673 53.3421 100.482 53.8034 100.474C54.2647 100.466 54.7104 100.641 55.0428 100.961C55.2187 101.12 55.3615 101.312 55.4629 101.526C55.5644 101.74 55.6226 101.973 55.6341 102.209C55.6456 102.446 55.6103 102.683 55.5301 102.906C55.4499 103.129 55.3264 103.334 55.1668 103.509C54.6668 104.121 54.1028 104.682 53.5668 105.266Z" fill="#8D6EA0"/>
<path d="M95.748 94.5023C96.729 95.4433 96.93 96.3163 96.359 97.1553C95.788 97.9943 94.987 98.1143 93.759 97.5903C93.519 97.4903 93.274 97.3903 93.032 97.2903C92.692 97.1293 92.354 96.9613 92.01 96.8073C90.375 96.0763 89.816 95.1363 90.355 94.0153C90.867 92.9353 91.924 92.7653 93.48 93.4923C94.23 93.8433 94.991 94.1673 95.748 94.5023Z" fill="#8D6EA0"/>
</svg>
