<svg width="140" height="140" viewBox="0 0 140 140" fill="none" xmlns="http://www.w3.org/2000/svg">
<path d="M70 140C108.66 140 140 108.66 140 70C140 31.3401 108.66 0 70 0C31.3401 0 0 31.3401 0 70C0 108.66 31.3401 140 70 140Z" fill="white"/>
<path d="M75.2218 13.5858C75.1848 14.2858 75.7368 14.0268 76.0668 14.1008C83.9465 15.4182 91.1066 19.4796 96.2808 25.5668C105.758 36.7758 107.711 49.3088 102.235 62.9808C99.5518 69.7068 95.6198 75.7338 91.6498 81.7248C87.2758 88.3028 82.7578 94.7718 79.0068 101.755C75.3656 108.264 72.9139 115.371 71.7668 122.741C71.6198 123.807 71.1418 124.615 70.0028 124.652C69.7731 124.661 69.544 124.624 69.3287 124.544C69.1134 124.463 68.9162 124.341 68.7487 124.183C68.5812 124.026 68.4467 123.837 68.353 123.627C68.2592 123.417 68.2082 123.191 68.2028 122.961C66.5858 111.935 61.5138 102.343 55.7028 93.0448C51.3328 86.0608 46.4808 79.4088 42.2918 72.2788C39.0578 66.7658 36.1908 61.0698 35.2348 54.6748C33.0668 39.9368 38.3218 28.2488 50.3398 19.5758C54.3858 16.7624 59.0048 14.88 63.8648 14.0638C64.1958 13.9898 64.5268 14.0638 64.8208 13.8068C64.8578 13.7698 64.8948 13.7328 64.8948 13.6968C64.8578 13.6228 64.7838 13.5858 64.7468 13.5488C68.2388 13.5858 71.7298 13.5858 75.2218 13.5858ZM69.8578 113.773C70.0145 113.701 70.1486 113.587 70.2456 113.445C70.3427 113.302 70.3991 113.136 70.4088 112.964C71.7205 108.925 73.3679 105.004 75.3338 101.24C79.2338 93.7788 83.9708 86.8328 88.6018 79.8128C92.0745 74.7689 95.1683 69.4744 97.8578 63.9728C100.467 58.3128 102.232 52.4328 101.607 46.1108C101.223 41.7222 99.9317 37.4613 97.8145 33.598C95.6973 29.7348 92.8006 26.3536 89.3079 23.6688C85.8152 20.984 81.8028 19.0542 77.525 18.0017C73.2472 16.9493 68.7975 16.7971 64.4578 17.5548C46.6648 20.4948 34.7578 38.6138 39.1308 56.1078C40.6008 61.9878 43.3938 67.2808 46.5178 72.4258C50.1178 78.3428 54.1618 83.9258 57.9108 89.7358C62.0518 95.9364 65.5372 102.551 68.3108 109.472C68.8628 110.906 69.3408 112.303 69.8578 113.773Z" fill="#8B6A9D"/>
<path d="M13.5508 46.0748C14.5798 45.2658 15.7928 45.3378 17.0418 45.3378C19.8718 45.3748 22.7018 45.3378 25.5318 45.3378C25.8455 45.3022 26.1633 45.3367 26.4621 45.4387C26.7609 45.5407 27.0333 45.7078 27.2598 45.9278C27.4748 46.1838 27.6157 46.4938 27.667 46.8242C27.7183 47.1546 27.6781 47.4927 27.5508 47.8018C27.4439 48.1202 27.2342 48.3941 26.9547 48.5804C26.6753 48.7666 26.3418 48.8547 26.0068 48.8308C22.4418 48.8308 18.8398 48.7938 15.2748 48.8678C14.5748 48.8678 14.2828 48.0958 13.5838 48.3168C13.5508 47.5818 13.5508 46.8098 13.5508 46.0748Z" fill="#8B6A9D"/>
<path d="M126.454 48.3198C122.376 49.4588 118.221 48.6138 114.068 48.8338C113.838 48.8656 113.605 48.8438 113.385 48.7701C113.165 48.6964 112.965 48.5728 112.801 48.409C112.638 48.2451 112.514 48.0455 112.44 47.8259C112.366 47.6062 112.344 47.3724 112.376 47.1428C112.342 46.9127 112.36 46.678 112.43 46.4561C112.499 46.2342 112.618 46.0309 112.777 45.8613C112.937 45.6918 113.132 45.5604 113.349 45.477C113.566 45.3937 113.799 45.3604 114.031 45.3798C117.596 45.3428 121.161 45.3798 124.726 45.3428C125.426 45.3428 125.826 45.9678 126.453 46.0778L126.454 48.3198Z" fill="#8B6A9D"/>
<path d="M111.128 61.1097C111.459 61.2197 111.9 61.2937 112.341 61.4777C114.218 62.2097 116.126 62.9837 118.001 63.7927C118.262 63.8632 118.504 63.9902 118.71 64.1649C118.916 64.3395 119.081 64.5574 119.193 64.8031C119.305 65.0487 119.362 65.3161 119.359 65.5862C119.356 65.8563 119.294 66.1224 119.177 66.3657C118.737 67.3577 117.892 67.6147 116.641 67.1367C114.546 66.2917 112.488 65.4837 110.393 64.6007C110.182 64.538 109.985 64.4338 109.815 64.2941C109.645 64.1544 109.504 63.9821 109.401 63.7873C109.299 63.5924 109.236 63.3791 109.217 63.1597C109.198 62.9403 109.223 62.7193 109.291 62.5097C109.355 62.0835 109.583 61.6991 109.926 61.4379C110.269 61.1766 110.7 61.0589 111.128 61.1097V61.1097Z" fill="#8B6A9D"/>
<path d="M110.908 32.9919C110.546 33.0107 110.187 32.9095 109.888 32.704C109.589 32.4984 109.366 32.2 109.254 31.8549C109.033 31.0459 109.07 30.1639 109.954 29.7969C112.268 28.8019 114.62 27.8469 117.009 26.9649C117.206 26.8882 117.417 26.8533 117.629 26.8622C117.84 26.8711 118.047 26.9238 118.237 27.0168C118.427 27.1098 118.596 27.2412 118.732 27.4027C118.869 27.5641 118.971 27.7521 119.031 27.9549C119.13 28.1418 119.189 28.3469 119.206 28.5577C119.222 28.7685 119.195 28.9803 119.126 29.1802C119.057 29.38 118.948 29.5636 118.805 29.7195C118.662 29.8755 118.489 30.0005 118.296 30.0869C115.98 31.1179 113.628 32.0369 111.276 32.9549C111.156 32.9837 111.032 32.9961 110.908 32.9919V32.9919Z" fill="#8B6A9D"/>
<path d="M30.5691 31.191C30.6111 31.4731 30.5747 31.7613 30.4639 32.0241C30.3532 32.2869 30.1723 32.5142 29.9412 32.6812C29.71 32.8482 29.4373 32.9484 29.1531 32.9709C28.8688 32.9935 28.5837 32.9375 28.3291 32.809C26.0851 31.928 23.8431 31.008 21.6381 30.089C21.4348 30.0286 21.2458 29.9274 21.0828 29.7917C20.9198 29.6559 20.786 29.4884 20.6898 29.2994C20.5935 29.1103 20.5367 28.9037 20.5229 28.692C20.509 28.4803 20.5384 28.268 20.6091 28.068C20.6531 27.8592 20.7396 27.6616 20.8632 27.4876C20.9868 27.3135 21.1448 27.1668 21.3275 27.0564C21.5102 26.946 21.7136 26.8744 21.9251 26.8459C22.1367 26.8175 22.3518 26.8328 22.5571 26.891C25.0501 27.6614 27.4811 28.6198 29.8291 29.758C30.0761 29.9016 30.277 30.1127 30.4081 30.3666C30.5392 30.6204 30.5951 30.9065 30.5691 31.191V31.191Z" fill="#8B6A9D"/>
<path d="M28.8755 61.2896C29.2561 61.2608 29.6342 61.3719 29.9387 61.602C30.2433 61.8322 30.4533 62.1656 30.5295 62.5396C30.6591 62.9208 30.6404 63.3368 30.4769 63.7047C30.3134 64.0727 30.0172 64.3654 29.6475 64.5246C27.4055 65.4806 25.1265 66.3986 22.8475 67.2446C22.6559 67.3341 22.4477 67.382 22.2364 67.3853C22.025 67.3886 21.8154 67.3472 21.6212 67.2639C21.427 67.1805 21.2526 67.057 21.1094 66.9015C20.9662 66.746 20.8575 66.5621 20.7905 66.3616C20.6804 66.182 20.6082 65.9819 20.5783 65.7734C20.5483 65.5649 20.5612 65.3525 20.6161 65.1492C20.6711 64.9459 20.7669 64.7559 20.8978 64.5909C21.0287 64.4259 21.1919 64.2894 21.3775 64.1896C23.6905 63.1636 26.0455 62.2816 28.3975 61.3266C28.5549 61.2961 28.7152 61.2837 28.8755 61.2896V61.2896Z" fill="#8B6A9D"/>
<path d="M69.8578 113.772C69.3428 112.302 68.8658 110.872 68.3508 109.472C65.5763 102.551 62.0899 95.9364 57.9478 89.7359C54.2358 83.9299 50.1578 78.3429 46.5578 72.4259C43.4308 67.2809 40.6378 61.9879 39.1678 56.1059C38.1614 51.8598 38.0417 47.4517 38.8164 43.1572C39.591 38.8628 41.2433 34.7743 43.67 31.1475C46.0966 27.5207 49.2454 24.4335 52.9195 22.079C56.5935 19.7245 60.7138 18.1533 65.0228 17.4636C69.3317 16.774 73.7366 16.9807 77.9619 18.0709C82.1873 19.1611 86.1424 21.1112 89.5798 23.7995C93.0172 26.4877 95.863 29.8563 97.9393 33.6944C100.016 37.5325 101.278 41.7578 101.647 46.1059C102.272 52.4269 100.471 58.3059 97.8978 63.9679C95.2204 69.4771 92.124 74.7727 88.6358 79.8079C84.0048 86.8279 79.2638 93.7739 75.3678 101.235C73.3955 104.996 71.7479 108.918 70.4428 112.959C70.3338 113.221 70.3338 113.552 69.8578 113.772ZM82.2048 29.4989C82.3205 29.243 82.3795 28.9651 82.378 28.6843C82.3765 28.4035 82.3145 28.1263 82.1961 27.8717C82.0777 27.617 81.9059 27.3909 81.6922 27.2087C81.4785 27.0265 81.228 26.8925 80.9578 26.8159C79.6185 26.1576 78.23 25.6046 76.8048 25.1619C76.5553 25.0513 76.2853 24.9943 76.0124 24.9944C75.7394 24.9946 75.4695 25.052 75.2201 25.1629C74.9707 25.2738 74.7473 25.4358 74.5643 25.6383C74.3814 25.8409 74.2429 26.0795 74.1578 26.3389C73.2066 26.1203 72.2339 26.0093 71.2578 26.0079C70.8578 24.4639 70.4488 24.1339 68.9428 24.2079C68.1708 24.2449 67.3628 24.2819 66.5908 24.3549C63.1951 24.803 59.9297 25.9525 57.002 27.7304C54.0744 29.5082 51.5485 31.8755 49.5848 34.6819C47.6211 37.4883 46.2626 40.6724 45.5955 44.032C44.9284 47.3916 44.9673 50.8532 45.7098 54.1969C47.0125 60.2709 50.5802 65.6204 55.6872 69.1571C60.7942 72.6938 67.0568 74.1519 73.2008 73.2349C82.8668 71.8749 89.7398 66.5089 93.1208 57.3209C96.5018 48.0959 94.6648 39.6429 88.2698 32.1819C87.0938 30.7819 86.6528 30.7119 85.0358 31.3729C84.0428 30.7859 83.1238 30.1609 82.2048 29.4989Z" fill="#E97799"/>
<path d="M84.9598 31.411C86.5768 30.786 87.0178 30.86 88.1938 32.22C94.5888 39.68 96.4258 48.17 93.0448 57.358C89.7008 66.546 82.7908 71.875 73.1248 73.272C66.9811 74.1888 60.7189 72.7306 55.6121 69.1941C50.5053 65.6577 46.9376 60.3085 45.6348 54.235C44.892 50.8915 44.8526 47.4302 45.5192 44.0707C46.1858 40.7113 47.5437 37.5271 49.5068 34.7206C51.4699 31.9141 53.9952 29.5465 56.9223 27.7682C59.8494 25.9899 63.1144 24.8398 66.5098 24.391C67.2818 24.281 68.0898 24.281 68.8618 24.244C70.3688 24.17 70.8098 24.501 71.1768 26.044C71.1303 26.5282 70.8972 26.9754 70.527 27.291C70.1568 27.6065 69.6783 27.7658 69.1928 27.735C68.4046 27.7539 67.6187 27.8278 66.8408 27.956C55.1898 29.941 47.6558 39.827 48.9448 51.551C49.2943 54.6237 50.3647 57.5704 52.0688 60.151C52.2898 60.519 52.5468 61.107 53.0248 60.372C54.8028 57.638 57.2919 55.44 60.2248 54.014C60.6658 53.793 60.8498 53.499 60.5928 53.022C59.1928 50.266 59.2698 47.289 59.3798 44.348C59.4858 41.8493 60.4753 39.4694 62.172 37.632C63.8687 35.7947 66.1625 34.6192 68.6448 34.315C74.0838 33.8 78.9718 37.035 80.1118 42.215C80.9673 45.6335 80.7224 49.2348 79.4118 52.506C79.0438 53.351 79.1908 53.719 79.9998 54.123C82.6297 55.399 84.8932 57.3208 86.5788 59.709C87.3878 60.809 87.3878 60.809 88.0858 59.672C90.4368 55.7286 91.4461 51.1295 90.9623 46.564C90.4786 41.9986 88.5279 37.7131 85.4028 34.35C84.9626 34.0129 84.6705 33.5181 84.5878 32.9699C84.5052 32.4217 84.6386 31.8628 84.9598 31.411V31.411ZM69.7808 70.075C74.9269 70.0669 79.9026 68.2303 83.8198 64.893C84.0256 64.7749 84.201 64.6104 84.3321 64.4126C84.4632 64.2149 84.5463 63.9892 84.5749 63.7537C84.6034 63.5181 84.5766 63.2791 84.4965 63.0558C84.4165 62.8324 84.2855 62.6308 84.1138 62.467C82.5971 60.2149 80.5026 58.4123 78.0498 57.248C77.7379 57.0498 77.3679 56.9638 77.0005 57.0039C76.6332 57.0441 76.2905 57.2081 76.0288 57.469C71.9488 60.887 67.9798 60.85 63.8638 57.432C63.6194 57.1824 63.2987 57.0216 62.9525 56.975C62.6063 56.9284 62.2544 56.9988 61.9528 57.175C59.473 58.311 57.3506 60.1028 55.8148 62.357C54.8958 63.68 54.9328 63.864 56.1828 64.93C59.9616 68.2038 64.7813 70.0274 69.7808 70.075V70.075ZM77.0208 46.259V44.716C76.9897 42.8699 76.2345 41.11 74.918 39.8155C73.6015 38.521 71.8291 37.7956 69.9828 37.7956C68.1365 37.7956 66.3641 38.521 65.0476 39.8155C63.7311 41.11 62.9759 42.8699 62.9448 44.716C62.9081 45.6346 62.9081 46.5533 62.9448 47.472C62.9641 48.8104 63.2581 50.1305 63.8086 51.3506C64.359 52.5707 65.1542 53.6648 66.1448 54.565C68.6068 56.88 71.5108 56.844 73.8998 54.455C75.0137 53.4197 75.8746 52.142 76.4158 50.7208C76.9569 49.2996 77.164 47.773 77.0208 46.259V46.259Z" fill="#8B6A9D"/>
<path d="M84.9621 31.4077C84.1901 32.5467 84.5621 33.4287 85.4401 34.3847C88.5653 37.7478 90.5159 42.0334 90.9997 46.5988C91.4834 51.1642 90.4741 55.7634 88.1231 59.7067C87.4231 60.8457 87.4231 60.8457 86.6161 59.7437C84.952 57.3368 82.6837 55.4103 80.0391 54.1577C79.1941 53.7577 79.0831 53.3857 79.4511 52.5407C80.7782 49.2733 81.0236 45.6667 80.1511 42.2497C79.0121 37.0677 74.1241 33.8337 68.6841 34.3497C66.2024 34.6538 63.9092 35.8287 62.2125 37.6652C60.5159 39.5018 59.5261 41.8807 59.4191 44.3787C59.3091 47.3557 59.2351 50.2957 60.6321 53.0527C60.8891 53.5307 60.7061 53.8247 60.2641 54.0447C57.3244 55.4605 54.8328 57.6608 53.0641 60.4027C52.5861 61.1377 52.3291 60.5497 52.1081 60.1817C50.4408 57.5828 49.3736 54.6449 48.9841 51.5817C48.2622 46.084 49.7365 40.5234 53.0873 36.1055C56.4381 31.6877 61.3954 28.7688 66.8841 27.9817C67.662 27.8535 68.4479 27.7797 69.2361 27.7607C69.7197 27.7908 70.1962 27.6325 70.5655 27.3189C70.9349 27.0053 71.1684 26.5608 71.2171 26.0787C72.1942 26.0598 73.1694 26.1711 74.1171 26.4097C74.0762 26.6564 74.0849 26.9088 74.1427 27.1522C74.2005 27.3955 74.3062 27.6248 74.4537 27.8268C74.6012 28.0288 74.7875 28.1993 75.0017 28.3284C75.2159 28.4575 75.4537 28.5426 75.7011 28.5787C76.8909 28.9258 78.0376 29.4065 79.1191 30.0117C79.5815 30.3312 80.1462 30.4672 80.7033 30.3933C81.2604 30.3193 81.7701 30.0407 82.1331 29.6117C83.1251 30.1587 84.0391 30.7787 84.9621 31.4077Z" fill="#F7DB8F"/>
<path d="M82.2052 29.4988C81.8422 29.9278 81.3325 30.2064 80.7754 30.2804C80.2183 30.3543 79.6536 30.2183 79.1912 29.8988C78.1098 29.2951 76.9635 28.8157 75.7742 28.4698C75.5271 28.4333 75.2898 28.348 75.076 28.2188C74.8622 28.0896 74.6763 27.9191 74.5292 27.7173C74.382 27.5155 74.2765 27.2864 74.2188 27.0433C74.1611 26.8003 74.1524 26.5482 74.1932 26.3018C74.2769 26.0416 74.4146 25.8021 74.5973 25.5988C74.7799 25.3954 75.0034 25.233 75.2532 25.122C75.5029 25.011 75.7733 24.9539 76.0466 24.9546C76.3199 24.9553 76.59 25.0136 76.8392 25.1258C78.2644 25.5685 79.6529 26.1215 80.9922 26.7798C81.2577 26.8686 81.5019 27.0116 81.7092 27.1997C81.9165 27.3878 82.0825 27.617 82.1965 27.8726C82.3106 28.1283 82.3703 28.4049 82.3717 28.6848C82.3732 28.9648 82.3165 29.242 82.2052 29.4988Z" fill="#8B6A9D"/>
<path d="M69.781 70.075C64.79 70.0402 59.9773 68.2145 56.219 64.93C54.97 63.864 54.97 63.681 55.852 62.357C57.3803 60.0965 59.5044 58.3029 61.989 57.175C62.2908 56.999 62.6427 56.9288 62.9889 56.9755C63.3351 57.0223 63.6558 57.1833 63.9 57.433C68.016 60.851 71.949 60.888 76.065 57.47C76.326 57.2074 76.669 57.0423 77.037 57.0021C77.4049 56.9618 77.7756 57.049 78.087 57.249C80.5317 58.424 82.6233 60.2228 84.151 62.464C84.3221 62.6281 84.4527 62.8298 84.5323 63.0531C84.612 63.2764 84.6386 63.5151 84.6101 63.7505C84.5816 63.9858 84.4987 64.2113 84.368 64.4091C84.2373 64.6069 84.0624 64.7715 83.857 64.89C79.9229 68.2234 74.9375 70.0598 69.781 70.075V70.075Z" fill="#72C9AE"/>
<path d="M77.0235 46.2559C77.1651 47.7674 76.9608 49.2913 76.4259 50.712C75.8911 52.1328 75.0397 53.4131 73.9365 54.4559C71.5105 56.8449 68.6075 56.8819 66.1815 54.5659C65.1841 53.67 64.3845 52.5758 63.834 51.3532C63.2835 50.1307 62.9942 48.8067 62.9845 47.4659C62.9479 46.5473 62.9479 45.6286 62.9845 44.7099C62.9891 43.793 63.1743 42.886 63.5296 42.0407C63.8849 41.1954 64.4033 40.4284 65.0551 39.7835C65.707 39.1386 66.4795 38.6285 67.3286 38.2823C68.1776 37.9361 69.0866 37.7607 70.0035 37.7659C70.9232 37.7572 71.8355 37.9302 72.6881 38.2748C73.5408 38.6195 74.317 39.1291 74.9723 39.7745C75.6276 40.4198 76.149 41.1881 76.5066 42.0354C76.8643 42.8827 77.0512 43.7923 77.0565 44.7119C77.0235 45.1899 77.0235 45.6309 77.0235 46.2559Z" fill="#F8EDDD"/>
</svg>
