<svg width="140" height="140" viewBox="0 0 140 140" fill="none" xmlns="http://www.w3.org/2000/svg">
<path d="M70 140C108.66 140 140 108.66 140 70C140 31.3401 108.66 0 70 0C31.3401 0 0 31.3401 0 70C0 108.66 31.3401 140 70 140Z" fill="white"/>
<path d="M112.313 104.246C113.189 104.42 114.052 104.656 114.894 104.953C115.943 105.406 116.819 106.183 117.394 107.17C117.968 108.158 118.21 109.303 118.085 110.439C117.904 111.612 117.349 112.695 116.502 113.526C115.655 114.357 114.561 114.892 113.385 115.051C112.632 115.127 111.875 115.147 111.119 115.111C83.7965 115.111 56.4735 115.111 29.1502 115.111C28.9822 115.111 28.8142 115.111 28.6502 115.111C24.9502 115.085 22.4832 113.136 22.2722 110.078C22.0592 107.054 24.2542 104.865 28.2772 104.324C19.1202 90.6099 16.2422 75.8349 20.7932 59.9529C23.9407 48.7612 30.8552 38.999 40.3682 32.3159C59.1242 18.7929 85.2082 19.9649 103.085 34.6469C118.605 47.3919 130.9 76.0389 112.313 104.246ZM22.3322 76.7229C22.4642 77.7139 22.6322 78.7019 22.7212 79.6969C23.4959 87.669 26.3588 95.296 31.0212 101.809C31.4745 102.525 32.0819 103.131 32.7991 103.583C33.5164 104.034 34.3254 104.32 35.1672 104.419C37.4462 104.632 39.7592 104.472 42.6312 104.472C38.4673 100.599 35.1357 95.9181 32.8391 90.7156C30.5426 85.5131 29.3293 79.8975 29.2732 74.2109C29.4732 73.0549 30.3052 72.6659 31.3322 72.5109C31.7844 72.6151 32.1864 72.8728 32.4698 73.2403C32.7532 73.6077 32.9004 74.0621 32.8862 74.5259C32.9652 76.1119 33.1222 77.6979 33.3442 79.2709C34.553 88.7882 39.4504 97.4504 46.9822 103.393C47.8734 104.149 49.0143 104.546 50.1822 104.506C63.5375 104.475 76.8935 104.472 90.2502 104.499C91.3299 104.556 92.3926 104.213 93.2342 103.534C102.334 96.2879 106.815 86.7339 107.487 75.2659C107.56 74.0229 107.587 72.8859 109.067 72.5129C110.079 72.6839 110.923 73.0559 111.107 74.2129C111.053 79.9006 109.844 85.5182 107.554 90.7247C105.264 95.9313 101.94 100.618 97.7842 104.502C99.8642 104.502 101.291 104.421 102.705 104.518C106.293 104.762 108.675 103.163 110.538 100.14C114.945 93.076 117.532 85.0302 118.068 76.7219C118.397 70.2317 117.403 63.7424 115.146 57.6484C112.889 51.5545 109.416 45.9831 104.939 41.273C100.462 36.563 95.0736 32.8126 89.1017 30.2499C83.1299 27.6872 76.6992 26.3657 70.2007 26.3657C63.7022 26.3657 57.2716 27.6872 51.2997 30.2499C45.3278 32.8126 39.9395 36.563 35.4622 41.273C30.985 45.9831 27.5123 51.5545 25.2553 57.6484C22.9983 63.7424 22.0041 70.2317 22.3332 76.7219L22.3322 76.7229ZM70.3062 108.023H40.0352C36.0832 108.023 32.1352 108.034 28.1792 108.023C26.9262 108.023 25.8792 108.468 25.9002 109.792C25.9172 111.098 26.9662 111.58 28.2122 111.559C28.6322 111.552 29.0532 111.559 29.4732 111.559C56.6332 111.559 83.7929 111.559 110.952 111.559C111.623 111.603 112.297 111.58 112.963 111.49C113.389 111.444 113.783 111.243 114.07 110.924C114.356 110.606 114.515 110.193 114.516 109.765C114.513 109.337 114.349 108.925 114.055 108.613C113.762 108.301 113.362 108.111 112.934 108.081C112.265 108.017 111.591 108 110.919 108.032C97.3812 108.027 83.8435 108.025 70.3062 108.026V108.023Z" fill="#8E6D9F"/>
<path d="M109.066 72.512C107.587 72.887 107.559 74.024 107.486 75.267C106.813 86.737 102.333 96.289 93.2334 103.537C92.3917 104.216 91.329 104.559 90.2494 104.502C76.8934 104.483 63.5374 104.485 50.1814 104.509C49.0134 104.549 47.8726 104.152 46.9814 103.396C39.4501 97.4529 34.5534 88.7904 33.3454 79.273C33.1234 77.7 32.9654 76.114 32.8874 74.528C32.9022 74.064 32.7552 73.6093 32.4715 73.2418C32.1877 72.8744 31.785 72.617 31.3324 72.514C31.0844 70.499 31.7464 68.569 31.8924 66.591C33.2414 67.017 34.5924 67.422 35.9364 67.876C36.1667 67.9835 36.4181 68.0385 36.6724 68.0368C36.9266 68.0351 37.1773 67.9769 37.4062 67.8663C37.6351 67.7557 37.8365 67.5956 37.9959 67.3975C38.1552 67.1994 38.2684 66.9683 38.3274 66.721C38.7274 65.562 38.0694 64.821 36.9674 64.439C35.6466 63.9121 34.2469 63.6103 32.8264 63.546C33.3624 61.227 33.8144 58.874 35.4754 57.01C36.7494 57.81 37.9834 58.696 39.3134 59.392C39.5084 59.5236 39.7292 59.6119 39.9612 59.6511C40.1931 59.6902 40.4308 59.6792 40.6581 59.6189C40.8855 59.5585 41.0973 59.4502 41.2793 59.3012C41.4613 59.1522 41.6093 58.9659 41.7134 58.755C41.8457 58.5604 41.9362 58.3406 41.9791 58.1092C42.0221 57.8779 42.0165 57.6402 41.9629 57.4111C41.9092 57.1821 41.8085 56.9666 41.6673 56.7785C41.5261 56.5903 41.3473 56.4335 41.1424 56.318C39.7644 55.559 38.5294 54.484 36.9064 54.212C38.0652 51.9299 39.5669 49.839 41.3594 48.012C41.8964 49.912 43.5714 50.863 44.8594 52.12C45.5224 52.765 46.2464 52.48 46.8594 51.907C47.0341 51.7866 47.1817 51.6311 47.293 51.4504C47.4042 51.2697 47.4766 51.0679 47.5055 50.8577C47.5343 50.6475 47.5191 50.4336 47.4607 50.2296C47.4024 50.0256 47.3021 49.8361 47.1664 49.673C45.9544 48.366 45.0434 46.6 42.9664 46.382C44.8562 44.4136 47.0361 42.746 49.4304 41.437C49.2774 43.281 50.4664 44.573 51.3514 45.972C51.4516 46.1831 51.5936 46.3716 51.7689 46.5261C51.9441 46.6807 52.1489 46.7981 52.3708 46.8711C52.5927 46.9442 52.8272 46.9714 53.06 46.9512C53.2928 46.931 53.519 46.8637 53.725 46.7534C53.931 46.6432 54.1125 46.4923 54.2584 46.3098C54.4044 46.1273 54.5118 45.9171 54.5741 45.6919C54.6364 45.4668 54.6523 45.2313 54.6209 44.9997C54.5895 44.7682 54.5114 44.5454 54.3914 44.345C53.6784 42.851 53.0434 41.245 51.4914 40.338C53.4932 38.6321 55.9818 37.6006 58.6034 37.39C58.5735 39.0551 58.8987 40.7074 59.5574 42.237C59.6104 42.4633 59.7122 42.6754 59.8555 42.8584C59.9988 43.0414 60.1803 43.191 60.3873 43.2967C60.5943 43.4024 60.8219 43.4618 61.0542 43.4707C61.2865 43.4795 61.5179 43.4377 61.7324 43.348C61.9404 43.3058 62.138 43.2227 62.3136 43.1034C62.4892 42.9841 62.6393 42.8311 62.7552 42.6533C62.871 42.4754 62.9503 42.2763 62.9885 42.0675C63.0267 41.8586 63.0229 41.6443 62.9774 41.437C62.4954 39.711 62.4864 37.768 60.9774 36.445C63.6296 35.5949 66.4158 35.2407 69.1964 35.4C67.7904 36.972 68.2294 38.876 68.3374 40.676C68.3851 41.1386 68.6032 41.5669 68.9492 41.8775C69.2953 42.1882 69.7445 42.359 70.2095 42.3568C70.6746 42.3545 71.1221 42.1794 71.4652 41.8654C71.8082 41.5514 72.0221 41.121 72.0654 40.658C72.1654 38.858 72.6074 36.952 71.1884 35.388C73.9722 35.2435 76.7592 35.6043 79.4144 36.453C77.8934 37.766 77.8944 39.713 77.4144 41.436C77.328 41.853 77.4104 42.2872 77.6436 42.6435C77.8767 42.9999 78.2417 43.2492 78.6584 43.337C78.8723 43.4275 79.1034 43.4703 79.3355 43.4624C79.5677 43.4546 79.7953 43.3963 80.0027 43.2917C80.21 43.187 80.3921 43.0384 80.5362 42.8563C80.6804 42.6742 80.7831 42.4628 80.8374 42.237C81.4981 40.71 81.8214 39.0584 81.7854 37.395C84.4102 37.5966 86.903 38.6268 88.9044 40.337C87.3454 41.237 86.7254 42.858 85.9934 44.337C85.8716 44.538 85.7921 44.7618 85.7597 44.9946C85.7273 45.2274 85.7427 45.4644 85.805 45.6911C85.8673 45.9177 85.9751 46.1293 86.1219 46.3129C86.2688 46.4965 86.4515 46.6482 86.6589 46.7587C86.8664 46.8693 87.0942 46.9364 87.3284 46.9559C87.5627 46.9755 87.7984 46.947 88.0213 46.8724C88.2442 46.7977 88.4496 46.6784 88.6248 46.5217C88.8 46.365 88.9414 46.1742 89.0404 45.961C89.9214 44.561 91.1164 43.261 90.9644 41.417C93.3565 42.7355 95.5363 44.4069 97.4304 46.375C95.3494 46.592 94.4414 48.36 93.2304 49.664C93.0965 49.8282 92.9975 50.0181 92.9396 50.2219C92.8817 50.4257 92.866 50.6393 92.8935 50.8494C92.9211 51.0595 92.9912 51.2618 93.0997 51.4438C93.2082 51.6258 93.3527 51.7838 93.5244 51.908C93.6503 52.0785 93.8132 52.2182 94.0009 52.3166C94.1887 52.4149 94.3963 52.4694 94.6081 52.4759C94.82 52.4823 95.0305 52.4406 95.2239 52.3538C95.4172 52.2671 95.5884 52.1375 95.7244 51.975C96.9244 50.736 98.5454 49.842 99.0244 48.007C100.763 49.8792 102.263 51.9597 103.489 54.201C101.938 54.369 100.852 55.501 99.5194 56.13C99.2617 56.2248 99.0301 56.3791 98.8434 56.5804C98.6566 56.7816 98.52 57.0241 98.4447 57.2881C98.3694 57.5521 98.3574 57.8302 98.4099 58.0997C98.4623 58.3692 98.5776 58.6225 98.7464 58.839C99.3744 59.877 100.427 59.8 101.372 59.253C102.584 58.553 103.743 57.753 104.925 57.004C106.299 58.9457 107.196 61.1839 107.543 63.537C106.127 63.607 104.732 63.9111 103.415 64.437C102.326 64.825 101.651 65.547 102.066 66.714C102.125 66.9607 102.238 67.1912 102.397 67.3887C102.557 67.5862 102.758 67.7458 102.986 67.856C103.215 67.9661 103.465 68.0239 103.718 68.0253C103.972 68.0267 104.223 67.9716 104.452 67.864C105.787 67.407 107.142 67.01 108.489 66.586C108.662 68.569 109.303 70.498 109.066 72.512ZM71.1584 69.08C67.6914 68.732 64.9744 70.843 64.7484 73.985C64.7607 75.4194 65.3049 76.7983 66.2755 77.8546C67.2461 78.9109 68.5741 79.5696 70.0024 79.703C72.6854 79.853 76.0414 77.003 75.5154 74.342C75.0284 71.884 76.2814 70.826 77.6154 69.491C81.3527 65.7576 85.0844 62.0163 88.8104 58.267C89.6264 57.443 90.1794 56.453 89.2104 55.399C88.1454 54.241 87.1104 54.766 86.1624 55.644C85.7314 56.044 85.3254 56.468 84.9104 56.883C81.2331 60.559 77.5574 64.2373 73.8834 67.918C73.0964 68.708 72.3624 69.545 71.1584 69.08ZM70.4004 86.775C65.9444 86.775 61.4884 86.79 57.0334 86.766C55.6994 86.759 54.2484 86.784 54.2494 88.492C54.2494 90.119 55.6254 90.337 57.0004 90.334C65.8277 90.3187 74.6551 90.3187 83.4824 90.334C84.8674 90.334 86.1824 90.071 86.1334 88.405C86.0884 86.839 84.7674 86.766 83.5154 86.771C79.1444 86.787 74.7774 86.776 70.4004 86.775ZM70.2774 93.859C68.0934 93.859 65.9084 93.88 63.7244 93.85C62.5014 93.833 61.4034 94.15 61.3714 95.511C61.3414 96.791 62.2784 97.403 63.5644 97.402C68.0164 97.402 72.4694 97.402 76.9224 97.395C78.2274 97.395 79.0864 96.695 79.0164 95.417C78.9504 94.217 77.9754 93.838 76.8294 93.851C74.6454 93.879 72.4614 93.86 70.2774 93.859Z" fill="#85CAF7"/>
<path d="M58.6094 37.3898C55.9878 37.6002 53.4992 38.6318 51.4974 40.3378C51.0848 40.3085 50.6722 40.3962 50.3072 40.5908C49.9421 40.7854 49.6392 41.0789 49.4334 41.4378C47.0394 42.7451 44.8595 44.4111 42.9694 46.3778C42.2561 46.7108 41.6863 47.2894 41.3644 48.0078C39.5721 49.8349 38.0704 51.9258 36.9114 54.2078C36.6317 54.2949 36.3722 54.4369 36.1482 54.6256C35.9241 54.8143 35.74 55.0458 35.6066 55.3066C35.4732 55.5675 35.3933 55.8523 35.3714 56.1444C35.3496 56.4365 35.3863 56.7301 35.4794 57.0078C33.8194 58.8708 33.3664 61.2248 32.8304 63.5438C31.5164 64.2508 31.7234 65.4248 31.8954 66.5888C31.7494 68.5668 31.0874 70.4968 31.3354 72.5118C30.3084 72.6638 29.4764 73.0538 29.2764 74.2118C26.5344 73.8638 24.5444 75.5978 22.3344 76.7238C22.0067 70.2344 23.0019 63.7461 25.2596 57.6533C27.5172 51.5604 30.9902 45.9902 35.4674 41.2812C39.9446 36.5723 45.3325 32.8228 51.3037 30.2607C57.2749 27.6986 63.7048 26.3774 70.2024 26.3774C76.7001 26.3774 83.1299 27.6986 89.1012 30.2607C95.0724 32.8228 100.46 36.5723 104.938 41.2812C109.415 45.9902 112.888 51.5604 115.145 57.6533C117.403 63.7461 118.398 70.2344 118.07 76.7238C115.856 75.5948 113.862 73.8528 111.109 74.2238C110.925 73.0618 110.081 72.6898 109.069 72.5188C109.307 70.5028 108.669 68.5738 108.493 66.5998C108.672 65.4298 108.876 64.2508 107.548 63.5458C107.201 61.194 106.304 58.9572 104.93 57.0168C105.021 56.7387 105.056 56.4454 105.033 56.1538C105.009 55.8622 104.929 55.5781 104.795 55.3179C104.662 55.0576 104.478 54.8263 104.255 54.6373C104.032 54.4484 103.773 54.3054 103.494 54.2168C102.268 51.9756 100.768 49.8951 99.0294 48.0228C98.7152 47.299 98.1482 46.7142 97.4344 46.3778C95.54 44.4098 93.3598 42.7383 90.9674 41.4198C90.7591 41.0651 90.4559 40.7756 90.092 40.5839C89.728 40.3922 89.3178 40.3059 88.9074 40.3348C86.9062 38.6243 84.4133 37.5937 81.7884 37.3918L81.8114 37.4058L81.3034 36.9058C80.7388 36.557 80.0782 36.396 79.4164 36.4458C76.7609 35.5988 73.9739 35.2396 71.1904 35.3858L69.1994 35.3988C66.4209 35.2418 63.6371 35.5978 60.9874 36.4488C60.3256 36.399 59.665 36.5612 59.1014 36.9118L58.5884 37.4118L58.6094 37.3898Z" fill="#C1CBE6"/>
<path d="M70.3046 108.026C83.8426 108.026 97.3803 108.026 110.918 108.026C111.59 107.994 112.263 108.011 112.933 108.075C113.36 108.105 113.76 108.295 114.054 108.607C114.347 108.919 114.512 109.33 114.515 109.759C114.514 110.188 114.356 110.601 114.069 110.92C113.782 111.239 113.388 111.441 112.962 111.487C112.295 111.577 111.622 111.6 110.951 111.556C83.7906 111.556 56.631 111.556 29.4716 111.556C29.0516 111.556 28.6306 111.548 28.2106 111.556C26.9646 111.58 25.9156 111.097 25.8986 109.791C25.8816 108.467 26.9256 108.016 28.1776 108.023C32.1296 108.037 36.0776 108.023 40.0336 108.023L70.3046 108.026Z" fill="#F8DC8E"/>
<path d="M22.332 76.7217C24.542 75.5957 26.532 73.8647 29.274 74.2097C29.3299 79.8965 30.5431 85.5123 32.8396 90.715C35.1361 95.9177 38.468 100.598 42.632 104.472C39.76 104.472 37.447 104.633 35.168 104.419C34.3263 104.32 33.5172 104.034 32.8 103.582C32.0827 103.131 31.4753 102.525 31.022 101.809C26.3594 95.2959 23.4961 87.6689 22.721 79.6967C22.632 78.7017 22.464 77.7127 22.332 76.7217Z" fill="#ABB5CF"/>
<path d="M111.107 74.2188C113.86 73.8518 115.854 75.5938 118.068 76.7188C117.532 85.027 114.945 93.0727 110.539 100.137C108.676 103.169 106.295 104.763 102.706 104.518C101.292 104.418 99.8662 104.502 97.7852 104.502C101.94 100.619 105.264 95.9328 107.554 90.7273C109.843 85.5218 111.052 79.9055 111.107 74.2188V74.2188Z" fill="#ABB5CF"/>
<path d="M71.161 69.0797C72.361 69.5447 73.098 68.7077 73.884 67.9177C77.5507 64.2311 81.2263 60.5524 84.911 56.8817C85.326 56.4667 85.733 56.0417 86.163 55.6427C87.111 54.7637 88.146 54.2427 89.211 55.3977C90.182 56.4517 89.628 57.4417 88.811 58.2657C85.097 62.0217 81.3663 65.7634 77.619 69.4907C76.284 70.8257 75.031 71.8837 75.519 74.3417C76.045 76.9997 72.689 79.8527 70.006 79.7027C68.5773 79.5698 67.2488 78.9114 66.2778 77.855C65.3068 76.7986 64.7624 75.4195 64.75 73.9847C64.977 70.8427 67.695 68.7307 71.161 69.0797Z" fill="#F5EDDE"/>
<path d="M70.401 86.7748C74.773 86.7748 79.144 86.7868 83.516 86.7648C84.767 86.7648 86.089 86.8358 86.134 88.4018C86.182 90.0668 84.869 90.3318 83.483 90.3308C74.6557 90.3201 65.8283 90.3201 57.001 90.3308C55.626 90.3358 54.25 90.1178 54.25 88.4908C54.25 86.7828 55.7 86.7578 57.034 86.7648C61.489 86.7888 65.95 86.7738 70.401 86.7748Z" fill="#E97A9C"/>
<path d="M70.2778 93.8587C72.4618 93.8587 74.6468 93.8777 76.8308 93.8517C77.9768 93.8377 78.9528 94.2197 79.0178 95.4177C79.0878 96.6927 78.2288 97.3927 76.9238 97.3957C72.4718 97.4047 68.0188 97.3957 63.5658 97.4027C62.2808 97.4027 61.3418 96.7907 61.3718 95.5107C61.4048 94.1487 62.5018 93.8327 63.7258 93.8487C65.9088 93.8787 68.0938 93.8577 70.2778 93.8587Z" fill="#EA7A9B"/>
<path d="M69.1975 35.3987L71.1885 35.3857C72.6075 36.9507 72.1665 38.8567 72.0655 40.6557C72.0582 40.8903 72.0041 41.121 71.9062 41.3343C71.8084 41.5476 71.6688 41.7391 71.4957 41.8976C71.3226 42.0561 71.1195 42.1782 70.8984 42.2569C70.6774 42.3356 70.4427 42.3692 70.2085 42.3557C69.9744 42.372 69.7394 42.341 69.5176 42.2646C69.2957 42.1882 69.0915 42.068 68.917 41.9111C68.7425 41.7541 68.6014 41.5637 68.502 41.3512C68.4026 41.1386 68.347 40.9082 68.3385 40.6737C68.2305 38.8747 67.7885 36.9707 69.1975 35.3987Z" fill="#8B74A6"/>
<path d="M35.4773 57.0109C35.3842 56.7331 35.3475 56.4395 35.3694 56.1474C35.3913 55.8552 35.4714 55.5703 35.6049 55.3095C35.7383 55.0487 35.9226 54.8172 36.1468 54.6285C36.3709 54.4399 36.6305 54.2979 36.9103 54.2109C38.5323 54.4849 39.7693 55.5589 41.1453 56.3179C41.3503 56.4335 41.529 56.5903 41.6703 56.7784C41.8115 56.9666 41.9121 57.182 41.9658 57.4111C42.0195 57.6402 42.025 57.8779 41.9821 58.1092C41.9391 58.3405 41.8486 58.5604 41.7163 58.7549C41.6123 58.9659 41.4643 59.1521 41.2823 59.3012C41.1002 59.4502 40.8884 59.5585 40.6611 59.6188C40.4337 59.6792 40.1961 59.6901 39.9641 59.651C39.7322 59.6119 39.5113 59.5235 39.3163 59.3919C37.9853 58.6959 36.7523 57.8109 35.4773 57.0109Z" fill="#8C6FA1"/>
<path d="M103.494 54.208C103.772 54.2968 104.03 54.4399 104.253 54.629C104.476 54.8181 104.66 55.0494 104.793 55.3097C104.926 55.57 105.007 55.854 105.029 56.1455C105.052 56.437 105.017 56.7301 104.927 57.008C103.745 57.765 102.586 58.559 101.374 59.26C100.429 59.807 99.3735 59.884 98.7475 58.846C98.5787 58.6295 98.4634 58.3762 98.411 58.1067C98.3586 57.8372 98.3705 57.5591 98.4458 57.2951C98.5212 57.0311 98.6578 56.7886 98.8445 56.5874C99.0313 56.3861 99.2629 56.2318 99.5205 56.137C100.854 55.508 101.94 54.376 103.494 54.208Z" fill="#8C70A2"/>
<path d="M59.1019 36.9117C59.6648 36.5612 60.3247 36.3991 60.9859 36.4487C62.4939 37.7717 62.5029 39.7187 62.9859 41.4407C63.0298 41.6475 63.0322 41.8609 62.9931 42.0686C62.954 42.2763 62.8741 42.4742 62.758 42.6509C62.642 42.8275 62.4921 42.9795 62.317 43.0979C62.1419 43.2163 61.9451 43.2988 61.7379 43.3407C61.5236 43.4306 61.2922 43.4727 61.0599 43.464C60.8276 43.4554 60.6 43.3962 60.3928 43.2907C60.1857 43.1851 60.0041 43.0357 59.8606 42.8528C59.7171 42.6699 59.6152 42.458 59.5619 42.2317C58.9046 40.7036 58.5801 39.053 58.6099 37.3897L58.5859 37.4067L59.1019 36.9117Z" fill="#8C70A2"/>
<path d="M79.4155 36.4507C80.0773 36.401 80.7379 36.5621 81.3025 36.9107L81.8105 37.4107L81.7885 37.3957C81.8246 39.0591 81.5013 40.7107 80.8405 42.2377C80.7869 42.4643 80.6844 42.6764 80.5402 42.8593C80.3961 43.0422 80.2138 43.1914 80.006 43.2965C79.7982 43.4017 79.57 43.4602 79.3373 43.468C79.1045 43.4758 78.8729 43.4327 78.6585 43.3417C78.4515 43.2984 78.255 43.2147 78.0803 43.0954C77.9057 42.9761 77.7562 42.8235 77.6406 42.6464C77.525 42.4693 77.4454 42.2711 77.4064 42.0632C77.3675 41.8552 77.3699 41.6417 77.4135 41.4347C77.8955 39.7117 77.8945 37.7637 79.4155 36.4507Z" fill="#8C70A2"/>
<path d="M49.4317 41.4389C49.6374 41.0802 49.9401 40.7868 50.305 40.5922C50.6699 40.3977 51.0822 40.3099 51.4947 40.3389C53.0437 41.2479 53.6787 42.8509 54.3947 44.3449C54.5147 44.5454 54.5928 44.7681 54.6242 44.9997C54.6556 45.2312 54.6397 45.4667 54.5774 45.6919C54.5151 45.9171 54.4077 46.1273 54.2617 46.3098C54.1158 46.4922 53.9343 46.6431 53.7283 46.7534C53.5223 46.8637 53.2961 46.9309 53.0633 46.9512C52.8305 46.9714 52.5961 46.9441 52.3741 46.8711C52.1522 46.798 51.9474 46.6806 51.7722 46.5261C51.5969 46.3715 51.4549 46.183 51.3547 45.9719C50.4667 44.5739 49.2767 43.2809 49.4317 41.4389Z" fill="#8C6FA1"/>
<path d="M88.9048 40.3399C89.3152 40.311 89.7254 40.3973 90.0894 40.589C90.4533 40.7807 90.7565 41.0702 90.9648 41.4249C91.1168 43.2729 89.9228 44.5659 89.0418 45.9689C88.9456 46.1831 88.8061 46.375 88.632 46.5326C88.458 46.6902 88.2532 46.81 88.0305 46.8845C87.8079 46.959 87.5722 46.9866 87.3383 46.9655C87.1045 46.9444 86.8776 46.8751 86.6718 46.7619C86.4622 46.6543 86.277 46.5046 86.128 46.322C85.9789 46.1395 85.8692 45.9282 85.8056 45.7012C85.742 45.4743 85.726 45.2367 85.7586 45.0033C85.7912 44.7699 85.8716 44.5458 85.9948 44.3449C86.7268 42.8609 87.3458 41.2399 88.9048 40.3399Z" fill="#8C6EA0"/>
<path d="M41.3594 48.0128C41.681 47.2942 42.2508 46.7155 42.9644 46.3828C45.0464 46.6008 45.9594 48.3668 47.1684 49.6738C47.304 49.837 47.4041 50.0267 47.4623 50.2308C47.5206 50.4348 47.5356 50.6488 47.5065 50.859C47.4775 51.0692 47.4049 51.271 47.2935 51.4516C47.182 51.6322 47.0342 51.7875 46.8594 51.9078C46.2474 52.4818 45.5244 52.7658 44.8594 52.1208C43.5714 50.8648 41.8964 49.9168 41.3594 48.0128Z" fill="#8C6FA1"/>
<path d="M97.4318 46.3818C98.1429 46.7153 98.7092 47.295 99.0258 48.0138C98.5458 49.8498 96.9198 50.7438 95.7258 51.9828C95.5898 52.1454 95.4186 52.2749 95.2253 52.3617C95.0319 52.4484 94.8214 52.4902 94.6095 52.4837C94.3977 52.4773 94.1901 52.4228 94.0023 52.3244C93.8146 52.2261 93.6517 52.0863 93.5258 51.9158C93.3536 51.792 93.2086 51.6342 93.0996 51.4522C92.9907 51.2702 92.9202 51.0678 92.8923 50.8575C92.8645 50.6472 92.88 50.4335 92.9379 50.2294C92.9957 50.0253 93.0947 49.8352 93.2288 49.6708C94.4428 48.3668 95.3508 46.5988 97.4318 46.3818Z" fill="#8C6FA1"/>
<path d="M31.8924 66.5899C31.7204 65.4269 31.5134 64.2529 32.8274 63.5449C34.2469 63.609 35.6456 63.9105 36.9654 64.4369C38.0654 64.8219 38.7264 65.5599 38.3254 66.7189C38.2666 66.9662 38.1534 67.1972 37.9942 67.3953C37.835 67.5935 37.6337 67.7537 37.4049 67.8643C37.1761 67.975 36.9255 68.0334 36.6713 68.0352C36.4172 68.037 36.1658 67.9823 35.9354 67.8749C34.5964 67.4219 33.2414 67.0169 31.8924 66.5899Z" fill="#8C6EA0"/>
<path d="M107.545 63.54C108.873 64.24 108.669 65.423 108.49 66.594C107.143 67.017 105.79 67.415 104.452 67.871C104.222 67.9781 103.972 68.0328 103.719 68.0312C103.466 68.0296 103.216 67.9717 102.988 67.8617C102.76 67.7518 102.559 67.5925 102.4 67.3953C102.241 67.1982 102.128 66.9682 102.069 66.722C101.654 65.555 102.329 64.833 103.418 64.44C104.734 63.9141 106.129 63.61 107.545 63.54V63.54Z" fill="#8C6EA0"/>
<path d="M59.0989 36.9121L58.5859 37.4121L59.0989 36.9121Z" fill="#85CAF7"/>
<path d="M81.8088 37.4111L81.3008 36.9111L81.8088 37.4111Z" fill="#85CAF7"/>
</svg>
