<svg width="603" height="277" viewBox="0 0 603 277" fill="none" xmlns="http://www.w3.org/2000/svg">
<g filter="url(#filter0_d_445_1024)">
<path d="M584 176H163C160.791 176 159 177.791 159 180V259C159 261.209 160.791 263 163 263H584C592.284 263 599 256.284 599 248V191C599 182.716 592.284 176 584 176Z" fill="#C9EEE6"/>
<path d="M462 88H132C129.791 88 128 89.7909 128 92V172C128 174.209 129.791 176 132 176H462C470.284 176 477 169.284 477 161V103C477 94.7157 470.284 88 462 88Z" fill="#FDD6C7"/>
<path d="M311 0H163.162C161.416 0 160 1.79086 160 4V84C160 86.2091 161.416 88 163.162 88H311C319.284 88 326 81.2843 326 73V15C326 6.71573 319.284 0 311 0Z" fill="#93B7D1"/>
<path d="M141.2 126.569C146.557 127.738 147.83 129.153 148.531 134.558C148.867 135.992 149.129 137.442 149.314 138.903C149.39 142.342 150.095 144.332 154.426 144.494C158.659 144.653 160.926 149.641 158.748 153.361C157.373 155.708 157.628 157.141 159.32 158.893C160.243 159.872 161.037 160.964 161.686 162.143C163.06 164.583 164.599 165.708 167.8 165.168C172.344 164.401 176.55 169.359 174.248 173.127C171.559 177.527 174.248 179.697 176.085 182.544C177.419 184.609 178.718 185.903 181.862 185.273C186.732 184.298 190.455 189.993 187.95 194.436C186.704 196.645 187.071 197.893 188.35 199.728C197.86 213.4 197.837 213.387 216.414 218.391C223.786 220.376 231.12 222.509 238.444 224.665C245.42 226.718 249.335 231.479 249.52 238.589C249.963 255.681 241.061 268.811 221.658 268.307C211.058 268.031 200.45 268.068 189.835 268.419C177.705 268.836 166.535 265.835 155.69 260.668C131.481 249.139 107.172 237.82 82.8839 226.453C58.7119 215.144 34.5319 203.854 10.3439 192.583C2.68587 188.999 2.01887 184.821 8.02987 178.777C9.47782 177.189 11.0072 175.678 12.6119 174.248C18.3299 169.589 21.8779 164.789 20.0249 156.297C18.4969 149.297 21.9409 142.334 26.5759 136.597C36.9519 123.761 47.3439 110.932 57.8819 98.2261C62.7659 92.3371 65.9189 92.5071 71.2529 98.3601C75.649 105.285 78.1621 113.237 78.5439 121.431C79.0669 132.505 85.6019 138.831 96.7079 138.916C106.602 138.988 116.498 138.149 126.393 138.886C128.353 139.234 130.293 139.691 132.202 140.257C135.449 141.399 136.525 140.884 135.741 137.134C134.429 130.865 135.717 128.745 141.2 126.569ZM234.423 248.921C235.838 247.164 235.943 245.014 236.247 242.921C236.764 239.368 235.77 237.321 231.809 236.301C220.904 233.501 210.219 229.815 199.271 227.222C192.079 225.522 187.135 221.53 183.132 215.71C179.798 210.864 176.274 206.148 172.832 201.375C165.389 190.712 158.167 179.892 150.096 169.675C144.049 158.448 134.502 152.605 121.917 152.03C113.888 151.663 105.823 151.872 97.7809 152.054C78.7239 152.483 65.0269 139.22 65.0899 120.223C65.0979 117.664 64.9399 115.174 63.2199 112.875C62.7586 113.174 62.3285 113.519 61.9359 113.904C53.4599 124.289 44.8909 134.589 36.5999 145.112C34.587 147.492 33.3078 150.404 32.9173 153.496C32.5268 156.588 33.0418 159.727 34.3999 162.532C35.5317 164.982 35.7877 167.746 35.1249 170.361C31.6859 173.75 28.3469 177.251 24.7739 180.491C22.3149 182.722 22.1189 183.791 25.5099 185.364C68.5689 205.332 111.547 225.48 154.6 245.464C161.976 248.888 168.893 253.578 177.277 254.493C193.471 256.262 209.703 255.093 225.917 254.964C229.74 254.934 233.287 253.324 234.418 248.921H234.423Z" fill="#8D6C9F"/>
<path d="M126.394 138.887C116.494 138.15 106.603 138.987 96.7089 138.917C85.6019 138.837 79.0679 132.506 78.5449 121.432C78.165 113.238 75.6518 105.285 71.2539 98.3609C77.1319 92.8609 81.6299 86.4879 83.8039 78.6329C89.3209 80.5739 92.0909 79.1509 94.4419 73.6889C100.101 60.5349 105.905 47.4449 111.652 34.3289C112.009 34.22 112.312 33.9804 112.5 33.6581C112.688 33.3357 112.748 32.9543 112.667 32.5899L112.421 32.4209C114.036 32.9719 114.88 31.8019 115.838 30.8899C132.792 14.7289 153.167 5.48993 176.023 1.49893C182.072 0.339594 188.259 0.0737653 194.385 0.709927C190.867 7.48093 186.713 13.8739 182.754 20.3909C170.394 40.7509 158.569 61.4509 145.719 81.4969C134.407 99.1439 126.754 117.705 126.394 138.887Z" fill="#EDDCD4"/>
<path d="M207.852 5.4039C209.845 2.8459 212.157 0.721902 215.688 1.7979C217.015 2.11389 218.201 2.85918 219.061 3.91806C219.921 4.97695 220.408 6.29019 220.445 7.6539C220.472 9.68328 219.771 11.6552 218.469 13.2119C199.31 39.2786 180.166 65.3559 161.038 91.4439C156.353 98.0063 152.857 105.34 150.709 113.112C149.124 118.521 147.631 119.671 141.834 119.8C138.209 117.571 136.78 114.417 137.934 110.262C140.301 101.159 144.299 92.56 149.734 84.8829C169.085 58.3742 188.458 31.8812 207.852 5.4039Z" fill="#8D6C9F"/>
<path d="M207.853 5.40709C188.481 31.8978 169.108 58.3894 149.734 84.8821C144.299 92.5595 140.302 101.158 137.934 110.261C136.776 114.416 138.205 117.57 141.834 119.799C142.077 122.099 140.424 124.221 141.198 126.57C135.72 128.746 134.431 130.87 135.742 137.132C136.527 140.882 135.452 141.397 132.203 140.255C130.294 139.691 128.355 139.233 126.395 138.885C126.756 117.703 134.408 99.1421 145.72 81.4931C158.568 61.4471 170.395 40.7471 182.758 20.3871C186.714 13.8671 190.867 7.47808 194.386 0.706085C196.368 0.420624 198.39 0.583359 200.302 1.18232C202.213 1.78127 203.966 2.80121 205.432 4.16708C206.061 4.86093 206.922 5.30174 207.853 5.40709V5.40709Z" fill="#D2B099"/>
<path d="M111.642 34.3278C105.896 47.4438 100.091 60.5338 94.4326 73.6878C92.0816 79.1518 89.3126 80.5728 83.7946 78.6318C80.6426 75.7788 80.5546 72.4648 82.1556 68.7758C89.0276 52.9358 95.8276 37.0638 102.708 21.2278C104.551 16.9848 108.175 15.3338 111.733 16.8978C115.205 18.4248 116.389 21.8248 114.863 26.0588C114.094 28.1968 113.232 30.2998 112.412 32.4188C112.412 32.4188 112.655 32.5878 112.656 32.5878C111.704 32.8108 111.693 33.5808 111.642 34.3278Z" fill="#8D6C9F"/>
<path d="M35.1236 170.366C35.788 167.751 35.532 164.987 34.3986 162.539C33.0405 159.734 32.5255 156.595 32.916 153.503C33.3065 150.411 34.5857 147.498 36.5986 145.119C44.8906 134.595 53.4596 124.291 61.9306 113.909C62.3241 113.524 62.7553 113.179 63.2176 112.88C64.9376 115.18 65.0976 117.669 65.0876 120.228C65.0246 139.228 78.7216 152.488 97.7786 152.059C105.822 151.878 113.887 151.668 121.915 152.035C134.5 152.608 144.047 158.454 150.092 169.68C149.092 170.033 148.113 170.446 147.097 170.729C133.25 174.605 119.4 178.472 105.547 182.329C105.266 182.205 104.952 182.184 104.658 182.27C104.364 182.356 104.109 182.543 103.94 182.798L94.2516 185.388C93.9549 185.295 93.636 185.303 93.344 185.409C93.052 185.516 92.803 185.715 92.6356 185.977L91.0306 186.277C90.7408 186.157 90.4165 186.15 90.1218 186.257C89.8271 186.365 89.5836 186.579 89.4396 186.858L82.1626 188.68C81.8705 188.578 81.5525 188.58 81.2615 188.684C80.9704 188.788 80.7237 188.989 80.5626 189.253L78.9396 189.559C78.6539 189.431 78.3297 189.418 78.0351 189.524C77.7405 189.631 77.4987 189.847 77.3606 190.128L75.7156 190.468C75.5814 190.391 75.4328 190.343 75.279 190.326C75.1253 190.309 74.9698 190.324 74.8222 190.371C74.6747 190.417 74.5383 190.493 74.4217 190.595C74.305 190.697 74.2107 190.821 74.1446 190.961C72.5726 190.722 71.0009 190.483 69.4296 190.244C68.5236 188.804 66.9516 188.259 65.5806 187.485C55.4419 181.748 45.2896 176.042 35.1236 170.366Z" fill="#F283A5"/>
<path d="M69.4324 190.234L74.1474 190.952C75.0044 191.852 75.4144 191.321 75.7194 190.459L77.3644 190.119C78.3054 191.085 78.6734 190.456 78.9434 189.552L80.5664 189.246C81.5404 190.284 81.9054 189.624 82.1664 188.673L89.4434 186.849C90.4184 187.873 90.7734 187.196 91.0344 186.268L92.6394 185.968C93.6584 187.093 94.0034 186.368 94.2554 185.379L103.943 182.789C104.813 183.777 105.254 183.295 105.55 182.32C119.402 178.459 133.252 174.592 147.1 170.72C148.116 170.435 149.1 170.02 150.095 169.671C158.168 179.883 165.39 190.704 172.831 201.365C172.167 201.805 171.459 202.173 170.717 202.465C153.717 207.132 136.713 211.778 119.705 216.403C118.735 215.853 118.126 216.31 117.249 216.887C114.827 218.48 111.555 219.997 109.227 219.263C104.737 217.847 100.619 215.13 96.5004 212.692C87.1164 207.136 77.8524 201.382 68.4694 195.815C67.3174 195.131 65.6444 194.862 65.6524 193.376C65.6604 191.903 67.3804 192.632 68.2744 192.215C69.1524 191.796 69.2384 191.003 69.4324 190.234Z" fill="#FCFBFB"/>
<path d="M119.703 216.404C136.709 211.766 153.713 207.121 170.715 202.468C171.457 202.177 172.166 201.809 172.83 201.368C176.272 206.143 179.797 210.859 183.13 215.705C187.13 221.526 192.076 225.512 199.269 227.217C210.217 229.812 220.902 233.495 231.807 236.296C235.768 237.314 236.762 239.363 236.245 242.916C235.945 245.016 235.835 247.163 234.421 248.916C229.504 250.283 224.401 250.86 219.303 250.625C205.76 250.275 192.217 249.925 178.673 249.642C176.795 249.584 174.963 249.047 173.351 248.081C156.409 238.539 139.464 229.007 122.515 219.484C121.244 218.768 119.763 218.23 119.703 216.404Z" fill="#F283A5"/>
<path d="M119.701 216.404C119.761 218.23 121.242 218.772 122.513 219.486C139.457 229.019 156.402 238.552 173.347 248.086C174.96 249.051 176.791 249.588 178.669 249.647C192.213 249.927 205.756 250.279 219.299 250.63C224.398 250.866 229.502 250.29 234.419 248.924C233.288 253.329 229.741 254.939 225.919 254.968C209.706 255.091 193.474 256.268 177.279 254.497C168.894 253.58 161.979 248.891 154.602 245.468C111.545 225.484 68.5704 205.335 25.5114 185.364C22.1204 183.795 22.3174 182.724 24.7754 180.494C28.3454 177.254 31.6864 173.754 35.1244 170.364C45.2784 176.064 55.4304 181.768 65.5804 187.478C66.9514 188.253 68.5234 188.797 69.4294 190.237C69.2354 191.004 69.1474 191.797 68.2694 192.208C67.3764 192.627 65.6554 191.898 65.6474 193.369C65.6394 194.858 67.3144 195.127 68.4644 195.811C77.8454 201.377 87.1124 207.133 96.4954 212.691C100.613 215.13 104.733 217.848 109.222 219.262C111.551 219.996 114.822 218.479 117.244 216.886C118.122 216.311 118.73 215.854 119.701 216.404Z" fill="#F0EDF1"/>
<path d="M111.656 34.3249C111.706 33.5789 111.717 32.8079 112.671 32.5859C112.752 32.9503 112.692 33.3318 112.504 33.6541C112.316 33.9764 112.013 34.216 111.656 34.3249V34.3249Z" fill="#FDFDFD"/>
<path d="M105.544 182.323C105.248 183.298 104.808 183.78 103.938 182.792C104.107 182.537 104.361 182.35 104.655 182.264C104.949 182.179 105.264 182.199 105.544 182.323V182.323Z" fill="#F0EDF1"/>
<path d="M94.2527 185.383C94.0007 186.368 93.6527 187.097 92.6367 185.972C92.8044 185.71 93.0534 185.511 93.3453 185.405C93.6372 185.298 93.956 185.291 94.2527 185.383V185.383Z" fill="#F0EDF1"/>
<path d="M91.0324 186.271C90.7694 187.199 90.4154 187.876 89.4414 186.852C89.5853 186.573 89.8288 186.358 90.1235 186.251C90.4182 186.143 90.7427 186.15 91.0324 186.271V186.271Z" fill="#F0EDF1"/>
<path d="M82.1586 188.673C81.8986 189.625 81.5336 190.286 80.5586 189.246C80.7203 188.983 80.967 188.782 81.2579 188.678C81.5488 188.574 81.8665 188.572 82.1586 188.673V188.673Z" fill="#F0EDF1"/>
<path d="M78.9384 189.555C78.6684 190.455 78.3014 191.085 77.3594 190.12C77.4984 189.84 77.7406 189.624 78.035 189.519C78.3294 189.414 78.6532 189.426 78.9384 189.555V189.555Z" fill="#F0EDF1"/>
<path d="M75.7165 190.461C75.4115 191.325 75.0015 191.852 74.1445 190.954C74.211 190.814 74.3056 190.69 74.4223 190.588C74.5391 190.487 74.6755 190.411 74.823 190.364C74.9706 190.318 75.1261 190.303 75.2798 190.319C75.4336 190.336 75.5822 190.384 75.7165 190.461V190.461Z" fill="#F0EDF1"/>
</g>
<defs>
<filter id="filter0_d_445_1024" x="0" y="0" width="603" height="276.458" filterUnits="userSpaceOnUse" color-interpolation-filters="sRGB">
<feFlood flood-opacity="0" result="BackgroundImageFix"/>
<feColorMatrix in="SourceAlpha" type="matrix" values="0 0 0 0 0 0 0 0 0 0 0 0 0 0 0 0 0 0 127 0" result="hardAlpha"/>
<feOffset dy="4"/>
<feGaussianBlur stdDeviation="2"/>
<feComposite in2="hardAlpha" operator="out"/>
<feColorMatrix type="matrix" values="0 0 0 0 0 0 0 0 0 0 0 0 0 0 0 0 0 0 0.25 0"/>
<feBlend mode="normal" in2="BackgroundImageFix" result="effect1_dropShadow_445_1024"/>
<feBlend mode="normal" in="SourceGraphic" in2="effect1_dropShadow_445_1024" result="shape"/>
</filter>
</defs>
</svg>
